<svg width="90" height="56" viewBox="0 0 90 56" fill="none" xmlns="http://www.w3.org/2000/svg">
<path d="M4.18779 8.98032e-05C1.87569 8.98032e-05 0 1.85754 0 4.14934V51.8508C0 54.1422 1.87596 56 4.18779 56H85.8122C88.1243 56 90 54.1425 90 51.8507V4.14926C90 1.85781 88.124 0 85.8122 0L4.18779 8.98032e-05ZM29.5115 6.74094C34.6488 6.74094 39.367 8.51181 43.0705 11.4698C39.9546 14.2323 37.6304 17.8617 36.4837 21.9754H38.2809C39.3393 18.5817 41.262 15.5602 43.7962 13.1641C46.3304 15.5602 48.253 18.5817 49.3115 21.9754H51.1369C49.9743 17.8833 47.6469 14.2756 44.5331 11.5312C48.2438 8.53562 52.9805 6.74086 58.1399 6.74086C70.0461 6.74086 79.6977 16.3047 79.6977 28.1031C79.6977 39.9015 70.0461 49.4654 58.1399 49.4654C52.8948 49.4654 48.0852 47.6104 44.3475 44.5247C47.691 41.6426 50.1559 37.7791 51.2831 33.3838H49.5252C48.5243 37.0728 46.5097 40.3539 43.7961 42.9197C41.0826 40.3539 39.0709 37.0728 38.0699 33.3838H36.3964C37.5302 37.7154 39.9629 41.5249 43.2561 44.3798C39.5253 47.4274 34.7346 49.2591 29.5114 49.2591C17.6053 49.2591 7.95374 39.7413 7.95374 28C7.95374 16.2588 17.6053 6.74094 29.5115 6.74094ZM56.5227 21.758C53.9324 21.758 51.4125 24.0018 51.4125 28.2146C51.4125 31.0082 52.7736 32.8515 55.4512 32.8515C56.2083 32.8518 57.4144 32.545 57.4144 32.545L57.8137 30.104C57.8137 30.104 56.713 30.6557 55.9574 30.6557C54.3658 30.6557 53.7272 29.4428 53.7272 28.1394C53.7272 25.4952 55.0966 24.0402 56.6212 24.0402C57.7645 24.0402 58.6827 24.6812 58.6827 24.6812L59.0484 22.307C59.0484 22.307 57.6891 21.758 56.5227 21.758ZM78.2999 21.9643L76.0471 21.9698L75.5634 24.9069C75.5634 24.9069 74.7165 23.7671 73.3921 23.7671C71.3329 23.7671 69.6177 26.1908 69.6177 28.9782C69.6177 30.7774 70.5306 32.5422 72.4021 32.5422C73.7484 32.5422 74.4946 31.6255 74.4946 31.6255L74.3962 32.4084H76.5843L78.2999 21.9643ZM13.7756 21.9949L11.9812 32.4642H14.144L15.5109 24.5698L15.7134 32.4642H17.2603L20.1459 24.5698L18.8662 32.4642H21.164L22.9359 21.9949H19.3809L17.1675 28.418L17.0522 21.9949L13.7756 21.9949ZM36.3712 22.6748C36.3223 22.7234 35.0634 29.9162 35.0634 30.7922C35.0634 32.0893 35.7972 32.6686 36.8297 32.6593C37.5695 32.653 38.1424 32.4689 38.4075 32.3918C38.4352 32.3844 38.489 32.3695 38.489 32.3695L38.7675 30.4969C38.6161 30.4969 38.3931 30.561 38.1965 30.561C37.4257 30.561 37.3402 30.1546 37.3893 29.8531L38.0109 26.0327H39.1837L39.4678 23.9622H38.3625L38.5875 22.6748H36.3712ZM62.5134 23.7282C61.0038 23.7282 59.8472 24.2214 59.8472 24.2214L59.5265 26.1442C59.5265 26.1442 60.4818 25.7512 61.9256 25.7512C62.7453 25.7512 63.3458 25.8441 63.3458 26.5203C63.3458 26.9311 63.2727 27.0833 63.2727 27.0833C63.2727 27.0833 62.6245 27.0275 62.3249 27.0275C60.4213 27.0275 58.4212 27.8542 58.4212 30.3408C58.4212 32.3001 59.7342 32.7484 60.5474 32.7484C62.1007 32.7484 62.7704 31.7261 62.8059 31.723L62.7327 32.5757H64.6706L65.5369 26.4229C65.5371 23.8121 63.2928 23.7282 62.5134 23.7282ZM26.1618 23.7393C24.6467 23.7393 23.4843 24.2325 23.4843 24.2325L23.1637 26.1553C23.1637 26.1553 24.1222 25.7624 25.5712 25.7624C26.394 25.7624 26.9972 25.8556 26.9972 26.5315C26.9972 26.942 26.924 27.0944 26.924 27.0944C26.924 27.0944 26.2739 27.0387 25.9734 27.0387C24.0625 27.0387 22.0556 27.864 22.0556 30.3492C22.0556 32.3074 23.3713 32.7568 24.1875 32.7568C25.7464 32.7568 26.4186 31.7344 26.4544 31.7314L26.3812 32.584H28.3275L29.1965 26.434C29.1965 23.8248 26.9441 23.7393 26.1618 23.7393ZM33.0355 23.7393C31.4086 23.7393 29.7562 24.39 29.7562 26.6124C29.7562 29.1304 32.5097 28.876 32.5097 29.9367C32.5097 30.6447 31.7413 30.7031 31.1484 30.7031C30.1224 30.7031 29.1998 30.3519 29.1965 30.3687L28.9012 32.2914C28.9543 32.3078 29.5256 32.5617 31.3706 32.5617C31.866 32.5617 34.6978 32.6864 34.6978 29.764C34.6978 27.0318 32.0765 27.5734 32.0765 26.4757C32.0765 25.9293 32.5021 25.7568 33.2831 25.7568C33.5932 25.7568 34.7878 25.8544 34.7878 25.8544L35.0634 23.9121C35.0634 23.9121 34.2925 23.7393 33.0355 23.7393ZM43.2055 23.7393C40.9447 23.7398 39.2709 26.1485 39.2709 28.8695C39.2709 32.01 41.3681 32.7568 43.155 32.7568C44.8043 32.7568 45.5315 32.3918 45.5315 32.3918L45.9252 30.2489C45.9252 30.2489 44.6706 30.795 43.5375 30.795C41.1231 30.795 41.5462 29.0144 41.5462 29.0144H46.1165C46.1165 29.0144 46.4119 27.5753 46.4119 26.9885C46.4119 25.5243 45.6742 23.7393 43.2055 23.7393ZM51.3928 23.8313C50.3743 23.8313 49.618 25.1884 49.618 25.1884L49.8205 23.9427H47.7055L46.2853 32.5423H48.6225C49.2844 28.87 49.4053 25.8882 50.985 26.434C51.2614 25.0126 51.5297 24.4635 51.8315 23.8619C51.8315 23.8619 51.6898 23.8313 51.3928 23.8313ZM70.3293 23.8313C69.3108 23.8313 68.5546 25.1884 68.5546 25.1884L68.7571 23.9427H66.6421L65.2218 32.5423H67.5562C68.2184 28.87 68.3423 25.8882 69.9215 26.434C70.1985 25.0126 70.4665 24.4635 70.7681 23.8619C70.7681 23.8619 70.6262 23.8313 70.3293 23.8313ZM43.1943 25.6788C44.4783 25.6788 44.2434 27.1148 44.2434 27.2309H41.715C41.715 27.0827 41.9541 25.6788 43.1943 25.6788ZM73.7466 25.846C74.5638 25.8457 74.9841 26.3927 74.9841 27.6796C74.9841 28.8472 74.3897 30.4077 73.1587 30.4077C72.3417 30.4077 71.9577 29.7392 71.9577 28.6911C71.9577 26.9774 72.7491 25.846 73.7466 25.846ZM62.5162 28.7719C62.8495 28.7724 62.9185 28.8045 62.9746 28.8194C62.9665 28.818 62.965 28.8195 62.9972 28.8249C63.0394 29.2079 62.7636 31.0041 61.4305 31.0041C60.7432 31.0041 60.5672 30.4625 60.5672 30.1429C60.5672 29.5198 60.8946 28.7719 62.5162 28.7719ZM26.1647 28.7803C26.5433 28.7807 26.5846 28.8227 26.6484 28.8333C26.6907 29.2161 26.4139 31.0096 25.0762 31.0096C24.3862 31.0096 24.2072 30.4706 24.2072 30.1513C24.2072 29.5285 24.5366 28.7803 26.1647 28.7803Z" fill="white"/>
</svg>
