<svg width="87" height="58" viewBox="0 0 87 58" fill="none" xmlns="http://www.w3.org/2000/svg">
<g clip-path="url(#clip0_429_181)">
<path d="M81.2 58H5.8C4.26174 58 2.78649 57.3889 1.69878 56.3012C0.61107 55.2135 0 53.7383 0 52.2L0 5.8C0 4.26174 0.61107 2.78649 1.69878 1.69878C2.78649 0.61107 4.26174 0 5.8 0L81.2 0C82.7383 0 84.2135 0.61107 85.3012 1.69878C86.3889 2.78649 87 4.26174 87 5.8V52.2C87 53.7383 86.3889 55.2135 85.3012 56.3012C84.2135 57.3889 82.7383 58 81.2 58ZM33.9107 24.9521C33.8445 24.953 33.7793 24.9686 33.72 24.9979C33.6606 25.0271 33.6085 25.0693 33.5675 25.1213C33.4723 25.2182 33.4178 25.3479 33.4152 25.4838C33.4152 25.5345 33.6521 26.2571 34.1596 27.7385L35.2568 30.943L35.7667 32.4365C36.3386 34.1121 36.6375 35.003 36.6632 35.1093C35.5381 36.5023 34.521 37.9792 33.6207 39.527L33.5288 39.6962L33.524 39.7566C33.524 39.9983 33.7197 40.1964 33.9638 40.1964L34.0291 40.1916H34.0267H36.9702C37.1074 40.1907 37.2421 40.155 37.3618 40.0878C37.4814 40.0206 37.582 39.9241 37.6541 39.8073L37.6565 39.8049L47.4005 25.7423C47.4517 25.6749 47.4797 25.5926 47.4803 25.5079L47.4778 25.4717V25.4741C47.4745 25.3384 47.4202 25.2089 47.3256 25.1116C47.285 25.0598 47.2333 25.0178 47.1743 24.9885C47.1154 24.9592 47.0506 24.9435 46.9848 24.9424H44.0389C43.9014 24.9433 43.7663 24.979 43.6463 25.0462C43.5263 25.1134 43.4252 25.2099 43.3526 25.3267L43.3502 25.3291L39.2902 31.2886L37.6106 25.5562C37.5675 25.3816 37.4673 25.2263 37.3259 25.1151C37.1844 25.0039 37.0099 24.9431 36.83 24.9424L36.7672 24.9448H36.7696L33.9107 24.9521ZM67.6908 24.6838H67.628C65.7962 24.6838 64.1504 25.4789 63.0146 26.7404L63.0098 26.7453C61.7675 28.03 61.0741 29.7479 61.0764 31.5351V31.6003V31.5979C61.0716 31.668 61.0716 31.7526 61.0716 31.8348C61.0716 33.1325 61.5767 34.3143 62.3983 35.1915L62.3959 35.1891C62.8633 35.6443 63.4196 35.9982 64.0301 36.2286C64.6405 36.459 65.292 36.5609 65.9436 36.5279H65.9315C66.7459 36.5182 67.5193 36.3515 68.2249 36.0518L68.1863 36.0663C68.8992 35.7981 69.5033 35.38 69.9794 34.8483L69.9843 34.8435C69.9601 34.9813 69.9335 35.0973 69.9021 35.2084L69.9069 35.1842C69.8638 35.3322 69.8378 35.4847 69.8296 35.6386V35.6434C69.8296 36.0494 69.9963 36.2548 70.3274 36.2548H72.964C73.067 36.2641 73.1707 36.2526 73.2692 36.221C73.3676 36.1895 73.4587 36.1385 73.5371 36.0712C73.6155 36.0038 73.6796 35.9214 73.7256 35.8288C73.7716 35.7363 73.7986 35.6354 73.805 35.5322V35.5298L75.371 25.5562C75.3858 25.481 75.3832 25.4034 75.3636 25.3293C75.3439 25.2552 75.3076 25.1865 75.2574 25.1285C75.2139 25.0686 75.1569 25.0199 75.0909 24.9863C75.025 24.9527 74.952 24.9352 74.878 24.9352H71.9707C71.6155 24.9352 71.3908 25.3581 71.3183 26.1967C70.8929 25.6509 70.3334 25.2244 69.6944 24.9589C69.0553 24.6934 68.3584 24.5978 67.6715 24.6814L67.6908 24.679V24.6838ZM24.2803 24.6838H24.2126C22.3832 24.6838 20.7374 25.4789 19.6064 26.7404L19.6016 26.7453C18.3593 28.03 17.6659 29.7479 17.6683 31.5351V31.6003V31.5979C17.6362 32.2548 17.737 32.9114 17.9646 33.5284C18.1921 34.1455 18.5418 34.7103 18.9926 35.1891L18.9902 35.1867C19.8457 36.018 21.0153 36.5303 22.3058 36.5303L22.5378 36.5255H22.5258C23.3281 36.5134 24.0893 36.3467 24.7829 36.0494L24.7443 36.0639C25.4668 35.7884 26.0807 35.3728 26.5761 34.8435L26.5785 34.8411C26.4891 35.0779 26.4335 35.3534 26.4263 35.6386V35.6434C26.4263 36.0494 26.5954 36.2548 26.9241 36.2548H29.5583C29.6612 36.2641 29.765 36.2526 29.8634 36.221C29.9618 36.1895 30.053 36.1385 30.1314 36.0712C30.2098 36.0038 30.2739 35.9214 30.3199 35.8288C30.3659 35.7363 30.3929 35.6354 30.3993 35.5322V35.5298L31.9677 25.5562C31.9808 25.4816 31.9773 25.4049 31.9572 25.3318C31.9371 25.2586 31.9011 25.1908 31.8517 25.1333C31.8082 25.0734 31.7511 25.0247 31.6852 24.9911C31.6192 24.9575 31.5463 24.94 31.4722 24.94H28.565C28.2098 24.94 27.985 25.3629 27.9149 26.2015C27.4851 25.66 26.9247 25.2367 26.2864 24.9712C25.6481 24.7058 24.9528 24.6069 24.2658 24.6838L24.2851 24.6814L24.2803 24.6838ZM78.8123 19.3333L78.7737 19.3309C78.6583 19.3305 78.547 19.3735 78.4619 19.4515C78.3768 19.5294 78.3242 19.6365 78.3145 19.7514L75.8302 35.6507C75.8098 35.7272 75.8095 35.8077 75.8294 35.8843C75.8493 35.961 75.8887 36.0312 75.9437 36.0881C75.9894 36.1422 76.0464 36.1856 76.1107 36.2153C76.1751 36.2449 76.2451 36.2601 76.3159 36.2597H78.8534L78.9307 36.2645C79.123 36.2645 79.3074 36.1881 79.4434 36.0522C79.5794 35.9162 79.6557 35.7318 79.6557 35.5395V35.5347L82.1353 19.9109L82.1377 19.8577C82.1375 19.72 82.0925 19.5859 82.0096 19.4759V19.4783C81.9662 19.432 81.9138 19.3951 81.8556 19.3697C81.7974 19.3444 81.7347 19.3312 81.6712 19.3309L81.635 19.3333H78.8123ZM50.6098 19.3333C50.5061 19.3197 50.4007 19.3281 50.3004 19.358C50.2001 19.3879 50.1073 19.4386 50.0279 19.5068C49.9486 19.575 49.8845 19.6591 49.8398 19.7537C49.7952 19.8483 49.771 19.9513 49.7688 20.0559L47.2869 35.6483C47.2741 35.7224 47.2777 35.7984 47.2973 35.871C47.3169 35.9437 47.3521 36.0111 47.4005 36.0688C47.4432 36.1289 47.4997 36.1778 47.5654 36.2115C47.631 36.2452 47.7038 36.2625 47.7775 36.2621H50.9313C51.0728 36.262 51.2099 36.2128 51.3192 36.1229C51.4285 36.033 51.5032 35.9079 51.5306 35.7691V35.7643L52.2193 31.3321C52.2399 31.138 52.3363 30.9599 52.4876 30.8367C52.6525 30.7034 52.8528 30.6174 53.0628 30.5877H53.07C53.2657 30.5515 53.4905 30.5322 53.7201 30.5298C53.9231 30.5298 54.1672 30.5418 54.4475 30.5684C54.7539 30.6037 55.0622 30.6198 55.3707 30.6168C57.1413 30.6196 58.8474 29.9522 60.146 28.7487L60.1412 28.7535C60.7887 28.0668 61.2888 27.2547 61.6105 26.3673C61.9322 25.4799 62.0687 24.5361 62.0117 23.5939V23.6133C62.0637 22.9902 61.9568 22.3641 61.7011 21.7935C61.4455 21.223 61.0493 20.7266 60.5496 20.3507L60.5399 20.3435C59.3867 19.6143 58.0358 19.2605 56.6733 19.3309H56.6878L50.6098 19.3333ZM7.15333 19.3333C7.05224 19.3225 6.95 19.333 6.85324 19.3643C6.75649 19.3955 6.66738 19.4467 6.59172 19.5147C6.51605 19.5826 6.45552 19.6656 6.41405 19.7585C6.37258 19.8513 6.3511 19.9518 6.351 20.0535V20.0583L3.86667 35.6507C3.85371 35.7248 3.85717 35.8009 3.87679 35.8735C3.89641 35.9462 3.93173 36.0136 3.98025 36.0712C4.02295 36.1313 4.0795 36.1803 4.14512 36.2139C4.21074 36.2476 4.2835 36.2649 4.35725 36.2645H7.26692C7.37065 36.2781 7.47609 36.2697 7.57636 36.2398C7.67662 36.2099 7.76946 36.1592 7.84882 36.0911C7.92817 36.0229 7.99226 35.9387 8.03691 35.8441C8.08155 35.7495 8.10575 35.6465 8.10792 35.5419L8.79667 31.3393C8.8176 31.1459 8.91293 30.9683 9.0625 30.8439C9.22739 30.7107 9.42775 30.6246 9.63767 30.595H9.64492C9.85876 30.5573 10.0754 30.5379 10.2926 30.537H10.295C10.498 30.537 10.7397 30.5491 11.02 30.5757C11.3256 30.6108 11.6331 30.627 11.9408 30.624C13.7847 30.624 15.4618 29.9159 16.7185 28.7559L16.7137 28.7608C17.361 28.0739 17.8609 27.2618 18.1826 26.3744C18.5043 25.4871 18.6409 24.5433 18.5842 23.6012V23.6205C18.6362 22.9974 18.5293 22.3714 18.2736 21.8008C18.018 21.2302 17.6217 20.7338 17.1221 20.358L17.1124 20.3507C15.9642 19.6242 14.6198 19.2697 13.2627 19.3358H13.2772L7.15333 19.3333ZM67.5313 33.4346L67.4153 33.437C66.7979 33.4376 66.2002 33.2192 65.7285 32.8208L65.7333 32.8232C65.5152 32.6222 65.3412 32.3782 65.2222 32.1066C65.1033 31.835 65.042 31.5416 65.0422 31.2451L65.0446 31.1363V31.0711C65.0446 30.1673 65.4095 29.348 66.0016 28.7535C66.584 28.1566 67.396 27.7868 68.295 27.7868H68.3747H68.3699L68.4521 27.7844C69.1022 27.7844 69.6943 28.0237 70.1486 28.4176L70.1462 28.4152C70.3706 28.6229 70.5496 28.8749 70.6718 29.1552C70.7941 29.4356 70.857 29.7382 70.8567 30.044L70.8543 30.16V30.1552V30.2132C70.8543 31.1049 70.4845 31.9121 69.8876 32.4848C69.5861 32.7852 69.2284 33.0233 68.8349 33.1854C68.4414 33.3475 68.0198 33.4306 67.5942 33.4298H67.5338L67.5313 33.4346ZM24.0821 33.4346L23.9613 33.437C23.3281 33.437 22.7457 33.205 22.301 32.8208L22.3034 32.8232C22.0909 32.62 21.9218 32.3758 21.8063 32.1054C21.6909 31.835 21.6314 31.5439 21.6316 31.2499L21.634 31.1363V31.0711C21.634 30.1673 21.9989 29.348 22.591 28.7535C23.1734 28.1566 23.983 27.7868 24.882 27.7868H24.9666H24.9618L25.0439 27.7844C25.694 27.7844 26.2861 28.0237 26.7404 28.4176L26.738 28.4152C26.9618 28.6228 27.1402 28.8745 27.2621 29.1544C27.3839 29.4342 27.4466 29.7363 27.4461 30.0416L27.4437 30.16V30.1552V30.2397C27.4437 31.1315 27.0739 31.9338 26.477 32.5066C25.8576 33.1027 25.0312 33.4354 24.1715 33.4346H24.0821ZM52.8573 27.2479L53.5074 23.1613C53.5126 23.1012 53.5296 23.0426 53.5574 22.989C53.5852 22.9354 53.6234 22.8879 53.6696 22.849C53.7159 22.8102 53.7693 22.7809 53.8269 22.7627C53.8845 22.7446 53.9451 22.7379 54.0053 22.7433H54.6916L54.839 22.7408C55.2571 22.7408 55.6703 22.7698 56.0739 22.8254L56.028 22.8206C56.4026 22.8883 56.7288 23.0574 56.985 23.2991C57.131 23.4371 57.2472 23.6034 57.3266 23.7879C57.406 23.9724 57.4468 24.1712 57.4466 24.3721L57.4442 24.4639V24.4591C57.4949 24.8628 57.4452 25.2728 57.2993 25.6527C57.1534 26.0326 56.916 26.3705 56.608 26.6365L56.6056 26.6389C55.8355 27.0784 54.9526 27.2802 54.0681 27.2189H54.0826L52.8622 27.2576L52.8573 27.2479ZM9.40808 27.2479L10.0582 23.1613C10.063 23.1011 10.0798 23.0423 10.1075 22.9886C10.1353 22.9348 10.1734 22.8871 10.2197 22.8482C10.266 22.8094 10.3196 22.78 10.3773 22.762C10.4351 22.744 10.4958 22.7376 10.556 22.7433H11.2786C12.0523 22.6866 12.8269 22.842 13.5188 23.1928L13.4947 23.1807C13.9514 23.4731 14.1061 24.0942 13.9538 25.0318C13.9422 25.3819 13.8465 25.724 13.6749 26.0294C13.5033 26.3347 13.2608 26.5943 12.9678 26.7863L12.9606 26.7912C11.8151 27.213 10.5887 27.3683 9.37425 27.2455L9.40808 27.2479Z" fill="white"/>
</g>
<defs>
<clipPath id="clip0_429_181">
<rect width="87" height="58" fill="white"/>
</clipPath>
</defs>
</svg>
