<svg width="86" height="58" viewBox="0 0 86 58" fill="none" xmlns="http://www.w3.org/2000/svg">
<g clip-path="url(#clip0_429_179)">
<path d="M80.2667 58H5.73333C4.21276 58 2.75446 57.3889 1.67925 56.3012C0.604046 55.2135 0 53.7383 0 52.2L0 5.8C0 4.26174 0.604046 2.78649 1.67925 1.69878C2.75446 0.61107 4.21276 0 5.73333 0L80.2667 0C81.7872 0 83.2455 0.61107 84.3207 1.69878C85.396 2.78649 86 4.26174 86 5.8V52.2C86 53.7383 85.396 55.2135 84.3207 56.3012C83.2455 57.3889 81.7872 58 80.2667 58ZM42.6178 35.6748L41.7602 41.1123C43.952 42.0455 46.3187 42.4834 48.6951 42.3956H48.6688C51.4536 42.5599 54.2113 41.7652 56.4924 40.1408L56.4518 40.1674C57.3832 39.4749 58.1405 38.5706 58.6625 37.5273C59.1846 36.4841 59.4567 35.3313 59.4571 34.162V34.1258C59.4571 31.4674 57.6988 29.261 54.2326 27.5548C53.2867 27.0931 52.382 26.5497 51.5283 25.9308L51.5833 25.9695C51.3449 25.8133 51.1463 25.6022 51.0039 25.3536C50.8615 25.105 50.7793 24.8258 50.7639 24.5388V24.534C50.7818 24.2347 50.8741 23.9448 51.0324 23.6913C51.1907 23.4378 51.4098 23.2289 51.6693 23.084L51.6788 23.0792C52.4807 22.6112 53.4021 22.395 54.3257 22.4581H54.3114H54.5025L54.6864 22.4557C56.2249 22.4557 57.6845 22.7916 59.0008 23.3933L58.9339 23.3668L59.4929 23.6688L60.3505 18.4223C58.6161 17.7419 56.7712 17.396 54.911 17.4024H54.7939H54.8011C52.1095 17.2832 49.4555 18.0758 47.2594 19.6548L47.2976 19.6282C46.3849 20.2799 45.6401 21.1438 45.1259 22.1472C44.6117 23.1505 44.343 24.2641 44.3426 25.3943V25.4064C44.3187 27.9632 46.139 30.1721 49.7558 31.9797C50.7113 32.4027 51.5355 32.9198 52.2737 33.5409L52.2569 33.5264C52.47 33.7077 52.6432 33.9321 52.7654 34.1851C52.8876 34.4382 52.9561 34.7143 52.9664 34.9958V35.0054C52.9664 35.7763 52.5126 36.4385 51.858 36.7358L51.8461 36.7406C51.1294 37.1224 50.2789 37.3448 49.3759 37.3448H49.2661H49.2708H49.0917C47.0444 37.3448 45.1046 36.8856 43.3655 36.0639L43.4491 36.1002L42.6297 35.6845L42.6178 35.6748ZM66.8053 38.4323H74.7244C74.8519 38.9849 75.1011 40.1932 75.4722 42.0573H81.2222L76.2199 17.8157H71.4421C70.7591 17.7544 70.0747 17.9177 69.4907 18.2812C68.9067 18.6448 68.4542 19.1892 68.2004 19.8336L68.1932 19.8553L59.0199 42.0573H65.5177L66.822 38.4347L66.8053 38.4323ZM35.5729 17.8157L31.6886 42.0573H37.8854L41.7673 17.8157H35.5729ZM11.7581 22.7626L16.7987 42.0186H23.3299L33.0646 17.8157H26.5047L20.4513 34.3553L19.8158 30.9937L17.6563 19.8553C17.5405 19.2129 17.1826 18.6411 16.658 18.2605C16.1334 17.88 15.4832 17.7205 14.8446 17.8157L14.8589 17.8132H4.85661L4.78256 18.3038C12.4843 20.2831 17.544 24.5533 19.823 30.9913C19.1227 29.1517 18.0428 27.4842 16.6553 26.1L16.6529 26.0976C15.2899 24.6817 13.6594 23.5575 11.8584 22.7916L11.7629 22.7553L11.7581 22.7626ZM73.7187 33.4467H68.5587C68.9075 32.5154 69.7293 30.2599 71.0241 26.68L71.1339 26.3393L71.5162 25.3581C71.6738 24.9569 71.7789 24.6283 71.8506 24.3769L72.2997 26.4528L73.7163 33.437L73.7187 33.4467Z" fill="#0A4E1D"/>
</g>
<defs>
<clipPath id="clip0_429_179">
<rect width="86" height="58" fill="white"/>
</clipPath>
</defs>
</svg>
