<svg width="20" height="19" viewBox="0 0 20 19" fill="none" xmlns="http://www.w3.org/2000/svg">
<path id="Vector" d="M18 4.5H14.25C14.25 3.30653 13.7759 2.16193 12.932 1.31802C12.0881 0.474106 10.9435 0 9.75 0C8.55653 0 7.41193 0.474106 6.56802 1.31802C5.72411 2.16193 5.25 3.30653 5.25 4.5H1.5C1.10218 4.5 0.720644 4.65804 0.43934 4.93934C0.158035 5.22064 0 5.60218 0 6V17.25C0 17.6478 0.158035 18.0294 0.43934 18.3107C0.720644 18.592 1.10218 18.75 1.5 18.75H18C18.3978 18.75 18.7794 18.592 19.0607 18.3107C19.342 18.0294 19.5 17.6478 19.5 17.25V6C19.5 5.60218 19.342 5.22064 19.0607 4.93934C18.7794 4.65804 18.3978 4.5 18 4.5ZM6.75 8.25C6.75 8.44891 6.67098 8.63968 6.53033 8.78033C6.38968 8.92098 6.19891 9 6 9C5.80109 9 5.61032 8.92098 5.46967 8.78033C5.32902 8.63968 5.25 8.44891 5.25 8.25V6.75C5.25 6.55109 5.32902 6.36032 5.46967 6.21967C5.61032 6.07902 5.80109 6 6 6C6.19891 6 6.38968 6.07902 6.53033 6.21967C6.67098 6.36032 6.75 6.55109 6.75 6.75V8.25ZM9.75 1.5C10.5456 1.5 11.3087 1.81607 11.8713 2.37868C12.4339 2.94129 12.75 3.70435 12.75 4.5H6.75C6.75 3.70435 7.06607 2.94129 7.62868 2.37868C8.19129 1.81607 8.95435 1.5 9.75 1.5ZM14.25 8.25C14.25 8.44891 14.171 8.63968 14.0303 8.78033C13.8897 8.92098 13.6989 9 13.5 9C13.3011 9 13.1103 8.92098 12.9697 8.78033C12.829 8.63968 12.75 8.44891 12.75 8.25V6.75C12.75 6.55109 12.829 6.36032 12.9697 6.21967C13.1103 6.07902 13.3011 6 13.5 6C13.6989 6 13.8897 6.07902 14.0303 6.21967C14.171 6.36032 14.25 6.55109 14.25 6.75V8.25Z" fill="black"/>
</svg>
