<svg width="50" height="45" viewBox="0 0 50 45" fill="none" xmlns="http://www.w3.org/2000/svg">
<path fill-rule="evenodd" clip-rule="evenodd" d="M19.6302 44.6251H30.3698C37.9123 44.6251 41.6847 44.6251 44.3938 42.8182C45.5627 42.0389 46.5694 41.0332 47.3566 39.8584C49.1667 37.1542 49.1667 33.3856 49.1667 25.8533C49.1667 18.3185 49.1667 14.5523 47.3566 11.8482C46.5695 10.6733 45.5627 9.66762 44.3938 8.88832C42.6538 7.72553 40.4739 7.31007 37.1365 7.16257C35.5439 7.16257 34.1737 5.95799 33.8619 4.39695C33.6237 3.2535 33.0047 2.22879 32.1095 1.49599C31.2143 0.763201 30.0979 0.367269 28.9488 0.375114H21.0512C18.6635 0.375114 16.6069 2.05907 16.1381 4.39695C15.8263 5.95799 14.4561 7.16257 12.8635 7.16257C9.52851 7.31007 7.34868 7.72799 5.60626 8.88832C4.43809 9.66777 3.43216 10.6735 2.64584 11.8482C0.833344 14.5523 0.833344 18.3185 0.833344 25.8533C0.833344 33.3856 0.833344 37.1518 2.64343 39.8584C3.42643 41.0286 4.43176 42.034 5.60626 42.8182C8.31534 44.6251 12.0878 44.6251 19.6302 44.6251ZM25 15.7962C19.4393 15.7962 14.9298 20.2974 14.9298 25.8508C14.9298 31.4067 19.4393 35.9079 25 35.9079C30.5608 35.9079 35.0703 31.4067 35.0703 25.8533C35.0703 20.2975 30.5608 15.7962 25 15.7962ZM25 19.8181C21.665 19.8181 18.9583 22.5198 18.9583 25.8533C18.9583 29.1843 21.665 31.886 25 31.886C28.335 31.886 31.0417 29.1843 31.0417 25.8533C31.0417 22.5198 28.335 19.8181 25 19.8181ZM36.4115 17.8072C36.4115 16.696 37.3129 15.7962 38.427 15.7962H41.1095C42.2212 15.7962 43.125 16.696 43.125 17.8072C43.1199 18.3453 42.905 18.8593 42.5276 19.2364C42.1501 19.6134 41.6409 19.8227 41.1119 19.8181H38.427C38.1649 19.8207 37.9048 19.7707 37.6616 19.6711C37.4185 19.5714 37.197 19.424 37.0098 19.2373C36.8227 19.0505 36.6735 18.8281 36.5708 18.5827C36.4682 18.3374 36.414 18.0738 36.4115 17.8072Z" fill="#0FA958"/>
</svg>
