<svg width="24" height="24" viewBox="0 0 24 24" fill="none" xmlns="http://www.w3.org/2000/svg">
<path d="M23.5601 11.22L18.5006 7.52V5C18.5276 4.49494 18.3331 4.00078 17.9599 3.62587C17.5868 3.25095 17.0653 3.02588 16.5099 3H3.9713C3.41979 3.03096 2.9039 3.25823 2.53539 3.63258C2.16689 4.00693 1.97544 4.49822 2.00253 5V15C1.99232 15.3971 2.1124 15.788 2.34746 16.1228C2.58252 16.4576 2.92191 16.7212 3.32238 16.88C3.11982 17.3305 3.04087 17.8191 3.09236 18.3036C3.14384 18.7881 3.3242 19.2539 3.61788 19.6609C3.91156 20.0678 4.30974 20.4037 4.77806 20.6395C5.24638 20.8753 5.77077 21.004 6.30599 21.0144C6.84122 21.0249 7.37119 20.9167 7.85019 20.6994C8.32919 20.482 8.74283 20.1619 9.05541 19.7668C9.368 19.3717 9.57014 18.9133 9.6444 18.4313C9.71867 17.9492 9.66281 17.458 9.48167 17H16.4769C16.296 17.4531 16.2378 17.9392 16.3074 18.4171C16.377 18.895 16.5722 19.3506 16.8765 19.7454C17.1808 20.1401 17.5852 20.4624 18.0556 20.6849C18.5259 20.9074 19.0483 21.0235 19.5785 21.0235C20.1087 21.0235 20.6311 20.9074 21.1014 20.6849C21.5718 20.4624 21.9762 20.1401 22.2805 19.7454C22.5849 19.3506 22.78 18.895 22.8496 18.4171C22.9192 17.9392 22.861 17.4531 22.6801 17H22.9001C23.1918 17 23.4716 16.8946 23.6779 16.7071C23.8841 16.5196 24 16.2652 24 16V12C23.9966 11.8481 23.9553 11.699 23.879 11.5638C23.8028 11.4287 23.6937 11.3111 23.5601 11.22ZM21.8003 12.48V15H18.5006V10.08L21.8003 12.48ZM7.5019 18C7.5019 18.1978 7.43739 18.3911 7.31653 18.5556C7.19568 18.72 7.0239 18.8482 6.82293 18.9239C6.62195 18.9996 6.4008 19.0194 6.18745 18.9808C5.97409 18.9422 5.77811 18.847 5.62429 18.7071C5.47047 18.5673 5.36572 18.3891 5.32328 18.1951C5.28084 18.0011 5.30262 17.8 5.38587 17.6173C5.46912 17.4346 5.61009 17.2784 5.79097 17.1685C5.97184 17.0586 6.18449 17 6.40202 17C6.69373 17 6.97348 17.1054 7.17975 17.2929C7.38602 17.4804 7.5019 17.7348 7.5019 18ZM20.7004 18C20.7004 18.1978 20.6359 18.3911 20.515 18.5556C20.3942 18.72 20.2224 18.8482 20.0214 18.9239C19.8204 18.9996 19.5993 19.0194 19.3859 18.9808C19.1726 18.9422 18.9766 18.847 18.8228 18.7071C18.669 18.5673 18.5642 18.3891 18.5218 18.1951C18.4793 18.0011 18.5011 17.8 18.5844 17.6173C18.6676 17.4346 18.8086 17.2784 18.9894 17.1685C19.1703 17.0586 19.383 17 19.6005 17C19.8922 17 20.172 17.1054 20.3782 17.2929C20.5845 17.4804 20.7004 17.7348 20.7004 18Z" fill="#D5973B"/>
</svg>
