<svg width="52" height="52" viewBox="0 0 52 52" fill="none" xmlns="http://www.w3.org/2000/svg">
<path d="M46.7492 14.3285L37.6716 5.25292C36.9097 4.49132 35.8766 4.06348 34.7994 4.06348C33.7222 4.06348 32.689 4.49132 31.9272 5.25292L6.87783 30.3003C6.4993 30.6765 6.19918 31.1241 5.99486 31.6171C5.79053 32.1101 5.68607 32.6388 5.68751 33.1725V42.2501C5.68751 43.3276 6.11553 44.3609 6.87739 45.1227C7.63926 45.8846 8.67257 46.3126 9.75002 46.3126H43.875C44.5215 46.3126 45.1415 46.0558 45.5986 45.5987C46.0557 45.1416 46.3125 44.5216 46.3125 43.8751C46.3125 43.2286 46.0557 42.6087 45.5986 42.1515C45.1415 41.6944 44.5215 41.4376 43.875 41.4376H25.3906L46.7492 20.075C47.1266 19.6977 47.426 19.2498 47.6303 18.7568C47.8346 18.2638 47.9397 17.7354 47.9397 17.2017C47.9397 16.6681 47.8346 16.1397 47.6303 15.6467C47.426 15.1537 47.1266 14.7058 46.7492 14.3285ZM27.625 16.4532L29.8594 18.6876L15.4375 33.1095L13.2031 30.8751L27.625 16.4532ZM10.5625 41.4376V35.1407L13.715 38.2912L16.8594 41.4376H10.5625ZM21.125 38.797L18.8906 36.5626L33.3125 22.1407L35.5469 24.3751L21.125 38.797ZM39 20.922L31.0781 13.0001L34.8035 9.2748L42.7253 17.1967L39 20.922Z" fill="white"/>
</svg>
