<svg width="38" height="38" viewBox="0 0 38 38" fill="none" xmlns="http://www.w3.org/2000/svg">
<g id="dashicons:email-alt">
<path id="Vector" d="M36.1 27.55V10.45C36.1 8.87298 34.827 7.59998 33.25 7.59998H6.63101C5.05401 7.59998 3.78101 8.87298 3.78101 10.45V27.55C3.78101 29.127 5.05401 30.4 6.63101 30.4H33.25C34.827 30.4 36.1 29.127 36.1 27.55ZM33.611 10.241C34.238 10.868 33.896 11.514 33.554 11.837L25.84 18.905L33.25 26.619C33.478 26.885 33.63 27.303 33.364 27.588C33.117 27.892 32.547 27.873 32.3 27.683L23.997 20.596L19.931 24.301L15.884 20.596L7.58101 27.683C7.33401 27.873 6.76401 27.892 6.51701 27.588C6.25101 27.303 6.40301 26.885 6.63101 26.619L14.041 18.905L6.32701 11.837C5.98501 11.514 5.64301 10.868 6.27001 10.241C6.89701 9.61398 7.54301 9.91798 8.07501 10.374L19.931 19.95L31.806 10.374C32.338 9.91798 32.984 9.61398 33.611 10.241Z" fill="white"/>
</g>
</svg>
