<svg width="24" height="24" viewBox="0 0 24 24" fill="none" xmlns="http://www.w3.org/2000/svg">
<path d="M6 12C5.99856 13.4165 6.49829 14.7877 7.41074 15.8712C8.32318 16.9546 9.58951 17.6802 10.9856 17.9197C12.3816 18.1592 13.8174 17.897 15.0388 17.1797C16.2601 16.4623 17.1883 15.336 17.659 14H12V10H21.805V14H21.8C20.873 18.564 16.838 22 12 22C6.477 22 2 17.523 2 12C2 6.477 6.477 2 12 2C13.6345 1.99884 15.2444 2.39875 16.6883 3.16467C18.1323 3.93058 19.3662 5.0391 20.282 6.393L17.004 8.688C16.2924 7.61241 15.2532 6.79473 14.0404 6.35617C12.8275 5.9176 11.5057 5.88149 10.2707 6.25319C9.03579 6.62488 7.95347 7.38461 7.18421 8.41974C6.41495 9.45487 5.9997 10.7103 6 12Z" fill="black"/>
</svg>
