<svg width="376" height="317" viewBox="0 0 376 317" fill="none" xmlns="http://www.w3.org/2000/svg">
<rect x="53" y="37" width="270" height="280" rx="15" fill="#EBF1AA" fill-opacity="0.38"/>
<rect y="72" width="308" height="59" rx="14" fill="white"/>
<rect x="34" y="147" width="308" height="59" rx="14" fill="white"/>
<rect x="68" y="222" width="308" height="59" rx="14" fill="white"/>
<path d="M146.091 246.727C146.091 248.242 145.821 249.561 145.281 250.683C144.741 251.801 143.998 252.667 143.051 253.283C142.109 253.893 141.025 254.199 139.798 254.199C138.572 254.199 137.485 253.893 136.538 253.283C135.596 252.667 134.855 251.801 134.315 250.683C133.78 249.561 133.513 248.242 133.513 246.727C133.513 245.212 133.78 243.896 134.315 242.778C134.855 241.656 135.598 240.79 136.545 240.179C137.492 239.563 138.577 239.256 139.798 239.256C141.025 239.256 142.109 239.563 143.051 240.179C143.998 240.79 144.741 241.656 145.281 242.778C145.821 243.896 146.091 245.212 146.091 246.727ZM144.798 246.727C144.798 245.425 144.58 244.31 144.145 243.382C143.709 242.449 143.115 241.737 142.362 241.244C141.609 240.752 140.755 240.506 139.798 240.506C138.847 240.506 137.994 240.752 137.241 241.244C136.489 241.737 135.892 242.447 135.452 243.375C135.016 244.303 134.798 245.42 134.798 246.727C134.798 248.029 135.016 249.144 135.452 250.072C135.887 251 136.482 251.713 137.234 252.21C137.987 252.703 138.842 252.949 139.798 252.949C140.755 252.949 141.609 252.703 142.362 252.21C143.12 251.718 143.716 251.008 144.152 250.08C144.588 249.147 144.803 248.029 144.798 246.727ZM149.04 254V243.091H150.269V244.767H150.361C150.579 244.218 150.958 243.775 151.498 243.439C152.042 243.098 152.658 242.928 153.344 242.928C153.448 242.928 153.564 242.93 153.692 242.935C153.82 242.939 153.926 242.944 154.012 242.949V244.234C153.955 244.225 153.855 244.211 153.713 244.192C153.571 244.173 153.417 244.163 153.252 244.163C152.684 244.163 152.177 244.284 151.732 244.526C151.292 244.762 150.944 245.091 150.688 245.513C150.432 245.934 150.304 246.415 150.304 246.955V254H149.04ZM159.765 254.227C158.87 254.227 158.086 253.991 157.414 253.517C156.741 253.044 156.216 252.383 155.837 251.536C155.463 250.688 155.276 249.701 155.276 248.574C155.276 247.452 155.463 246.469 155.837 245.626C156.216 244.779 156.744 244.121 157.421 243.652C158.098 243.179 158.886 242.942 159.786 242.942C160.449 242.942 161 243.06 161.441 243.297C161.881 243.529 162.234 243.818 162.499 244.163C162.764 244.509 162.97 244.845 163.117 245.172H163.23V239.455H164.502V254H163.266V251.976H163.117C162.97 252.307 162.762 252.648 162.492 252.999C162.222 253.344 161.864 253.635 161.419 253.872C160.979 254.109 160.427 254.227 159.765 254.227ZM159.914 253.07C160.619 253.07 161.221 252.878 161.718 252.494C162.215 252.106 162.594 251.573 162.854 250.896C163.119 250.214 163.252 249.433 163.252 248.553C163.252 247.681 163.122 246.912 162.861 246.244C162.601 245.572 162.222 245.046 161.725 244.668C161.228 244.284 160.624 244.092 159.914 244.092C159.185 244.092 158.569 244.291 158.067 244.689C157.57 245.082 157.191 245.615 156.931 246.287C156.675 246.959 156.547 247.714 156.547 248.553C156.547 249.4 156.677 250.165 156.938 250.847C157.198 251.528 157.577 252.071 158.074 252.473C158.576 252.871 159.189 253.07 159.914 253.07ZM172.513 254.227C171.495 254.227 170.614 253.991 169.871 253.517C169.128 253.039 168.552 252.378 168.145 251.536C167.743 250.688 167.542 249.713 167.542 248.609C167.542 247.511 167.743 246.536 168.145 245.683C168.552 244.826 169.114 244.156 169.828 243.673C170.548 243.186 171.379 242.942 172.321 242.942C172.913 242.942 173.484 243.051 174.033 243.268C174.582 243.482 175.075 243.811 175.51 244.256C175.951 244.696 176.299 245.252 176.554 245.925C176.81 246.592 176.938 247.383 176.938 248.297V248.922H168.415V247.807H175.645C175.645 247.106 175.503 246.476 175.219 245.918C174.94 245.354 174.549 244.909 174.047 244.582C173.55 244.256 172.975 244.092 172.321 244.092C171.63 244.092 171.022 244.277 170.496 244.646C169.971 245.016 169.559 245.503 169.26 246.109C168.967 246.715 168.818 247.378 168.813 248.098V248.766C168.813 249.632 168.962 250.39 169.26 251.038C169.563 251.682 169.992 252.182 170.546 252.537C171.1 252.892 171.756 253.07 172.513 253.07C173.029 253.07 173.481 252.989 173.87 252.828C174.263 252.667 174.592 252.452 174.857 252.182C175.127 251.907 175.33 251.607 175.468 251.28L176.668 251.67C176.502 252.13 176.23 252.554 175.851 252.942C175.477 253.33 175.008 253.643 174.445 253.879C173.886 254.111 173.242 254.227 172.513 254.227ZM179.724 254V243.091H180.952V244.767H181.045C181.263 244.218 181.641 243.775 182.181 243.439C182.726 243.098 183.341 242.928 184.028 242.928C184.132 242.928 184.248 242.93 184.376 242.935C184.504 242.939 184.61 242.944 184.695 242.949V244.234C184.638 244.225 184.539 244.211 184.397 244.192C184.255 244.173 184.101 244.163 183.935 244.163C183.367 244.163 182.861 244.284 182.415 244.526C181.975 244.762 181.627 245.091 181.371 245.513C181.116 245.934 180.988 246.415 180.988 246.955V254H179.724ZM196.405 254.227C195.51 254.227 194.727 253.991 194.054 253.517C193.382 253.044 192.856 252.383 192.478 251.536C192.104 250.688 191.917 249.701 191.917 248.574C191.917 247.452 192.104 246.469 192.478 245.626C192.856 244.779 193.384 244.121 194.061 243.652C194.739 243.179 195.527 242.942 196.426 242.942C197.089 242.942 197.641 243.06 198.081 243.297C198.522 243.529 198.874 243.818 199.14 244.163C199.405 244.509 199.611 244.845 199.757 245.172H199.871V239.455H201.142V254H199.907V251.976H199.757C199.611 252.307 199.402 252.648 199.132 252.999C198.863 253.344 198.505 253.635 198.06 253.872C197.62 254.109 197.068 254.227 196.405 254.227ZM196.554 253.07C197.26 253.07 197.861 252.878 198.358 252.494C198.855 252.106 199.234 251.573 199.495 250.896C199.76 250.214 199.892 249.433 199.892 248.553C199.892 247.681 199.762 246.912 199.502 246.244C199.241 245.572 198.863 245.046 198.365 244.668C197.868 244.284 197.265 244.092 196.554 244.092C195.825 244.092 195.21 244.291 194.708 244.689C194.211 245.082 193.832 245.615 193.571 246.287C193.316 246.959 193.188 247.714 193.188 248.553C193.188 249.4 193.318 250.165 193.578 250.847C193.839 251.528 194.218 252.071 194.715 252.473C195.217 252.871 195.83 253.07 196.554 253.07ZM209.154 254.227C208.136 254.227 207.255 253.991 206.512 253.517C205.768 253.039 205.193 252.378 204.786 251.536C204.383 250.688 204.182 249.713 204.182 248.609C204.182 247.511 204.383 246.536 204.786 245.683C205.193 244.826 205.754 244.156 206.469 243.673C207.189 243.186 208.02 242.942 208.962 242.942C209.554 242.942 210.124 243.051 210.674 243.268C211.223 243.482 211.715 243.811 212.151 244.256C212.591 244.696 212.939 245.252 213.195 245.925C213.451 246.592 213.578 247.383 213.578 248.297V248.922H205.056V247.807H212.286C212.286 247.106 212.144 246.476 211.86 245.918C211.58 245.354 211.19 244.909 210.688 244.582C210.191 244.256 209.615 244.092 208.962 244.092C208.271 244.092 207.662 244.277 207.137 244.646C206.611 245.016 206.199 245.503 205.901 246.109C205.607 246.715 205.458 247.378 205.453 248.098V248.766C205.453 249.632 205.603 250.39 205.901 251.038C206.204 251.682 206.632 252.182 207.186 252.537C207.74 252.892 208.396 253.07 209.154 253.07C209.67 253.07 210.122 252.989 210.51 252.828C210.903 252.667 211.232 252.452 211.498 252.182C211.767 251.907 211.971 251.607 212.108 251.28L213.309 251.67C213.143 252.13 212.871 252.554 212.492 252.942C212.118 253.33 211.649 253.643 211.086 253.879C210.527 254.111 209.883 254.227 209.154 254.227ZM217.629 239.455V254H216.364V239.455H217.629ZM220.988 254V243.091H222.259V254H220.988ZM221.634 241.216C221.374 241.216 221.151 241.128 220.967 240.953C220.782 240.773 220.69 240.558 220.69 240.307C220.69 240.056 220.782 239.843 220.967 239.668C221.151 239.488 221.374 239.398 221.634 239.398C221.895 239.398 222.117 239.488 222.302 239.668C222.487 239.843 222.579 240.056 222.579 240.307C222.579 240.558 222.487 240.773 222.302 240.953C222.117 241.128 221.895 241.216 221.634 241.216ZM234.047 243.091L230.063 254H228.713L224.729 243.091H226.1L229.338 252.331H229.438L232.676 243.091H234.047ZM240.54 254.227C239.522 254.227 238.642 253.991 237.898 253.517C237.155 253.039 236.58 252.378 236.173 251.536C235.77 250.688 235.569 249.713 235.569 248.609C235.569 247.511 235.77 246.536 236.173 245.683C236.58 244.826 237.141 244.156 237.856 243.673C238.576 243.186 239.406 242.942 240.349 242.942C240.941 242.942 241.511 243.051 242.06 243.268C242.61 243.482 243.102 243.811 243.538 244.256C243.978 244.696 244.326 245.252 244.582 245.925C244.837 246.592 244.965 247.383 244.965 248.297V248.922H236.442V247.807H243.673C243.673 247.106 243.531 246.476 243.246 245.918C242.967 245.354 242.576 244.909 242.075 244.582C241.577 244.256 241.002 244.092 240.349 244.092C239.657 244.092 239.049 244.277 238.523 244.646C237.998 245.016 237.586 245.503 237.288 246.109C236.994 246.715 236.845 247.378 236.84 248.098V248.766C236.84 249.632 236.989 250.39 237.288 251.038C237.591 251.682 238.019 252.182 238.573 252.537C239.127 252.892 239.783 253.07 240.54 253.07C241.057 253.07 241.509 252.989 241.897 252.828C242.29 252.667 242.619 252.452 242.884 252.182C243.154 251.907 243.358 251.607 243.495 251.28L244.695 251.67C244.53 252.13 244.257 252.554 243.879 252.942C243.504 253.33 243.036 253.643 242.472 253.879C241.914 254.111 241.27 254.227 240.54 254.227ZM247.751 254V243.091H248.98V244.767H249.072C249.29 244.218 249.669 243.775 250.208 243.439C250.753 243.098 251.368 242.928 252.055 242.928C252.159 242.928 252.275 242.93 252.403 242.935C252.531 242.939 252.637 242.944 252.723 242.949V244.234C252.666 244.225 252.566 244.211 252.424 244.192C252.282 244.173 252.128 244.163 251.963 244.163C251.395 244.163 250.888 244.284 250.443 244.526C250.002 244.762 249.654 245.091 249.399 245.513C249.143 245.934 249.015 246.415 249.015 246.955V254H247.751ZM258.958 254.227C257.94 254.227 257.06 253.991 256.316 253.517C255.573 253.039 254.998 252.378 254.591 251.536C254.188 250.688 253.987 249.713 253.987 248.609C253.987 247.511 254.188 246.536 254.591 245.683C254.998 244.826 255.559 244.156 256.274 243.673C256.993 243.186 257.824 242.942 258.767 242.942C259.359 242.942 259.929 243.051 260.478 243.268C261.028 243.482 261.52 243.811 261.956 244.256C262.396 244.696 262.744 245.252 263 245.925C263.255 246.592 263.383 247.383 263.383 248.297V248.922H254.86V247.807H262.091C262.091 247.106 261.949 246.476 261.664 245.918C261.385 245.354 260.994 244.909 260.493 244.582C259.995 244.256 259.42 244.092 258.767 244.092C258.075 244.092 257.467 244.277 256.941 244.646C256.416 245.016 256.004 245.503 255.706 246.109C255.412 246.715 255.263 247.378 255.258 248.098V248.766C255.258 249.632 255.407 250.39 255.706 251.038C256.009 251.682 256.437 252.182 256.991 252.537C257.545 252.892 258.201 253.07 258.958 253.07C259.475 253.07 259.927 252.989 260.315 252.828C260.708 252.667 261.037 252.452 261.302 252.182C261.572 251.907 261.776 251.607 261.913 251.28L263.113 251.67C262.948 252.13 262.675 252.554 262.297 252.942C261.922 253.33 261.454 253.643 260.89 253.879C260.332 254.111 259.688 254.227 258.958 254.227ZM270.097 254.227C269.202 254.227 268.418 253.991 267.746 253.517C267.073 253.044 266.548 252.383 266.169 251.536C265.795 250.688 265.608 249.701 265.608 248.574C265.608 247.452 265.795 246.469 266.169 245.626C266.548 244.779 267.076 244.121 267.753 243.652C268.43 243.179 269.218 242.942 270.118 242.942C270.781 242.942 271.332 243.06 271.773 243.297C272.213 243.529 272.566 243.818 272.831 244.163C273.096 244.509 273.302 244.845 273.449 245.172H273.562V239.455H274.834V254H273.598V251.976H273.449C273.302 252.307 273.094 252.648 272.824 252.999C272.554 253.344 272.196 253.635 271.751 253.872C271.311 254.109 270.759 254.227 270.097 254.227ZM270.246 253.07C270.951 253.07 271.553 252.878 272.05 252.494C272.547 252.106 272.926 251.573 273.186 250.896C273.451 250.214 273.584 249.433 273.584 248.553C273.584 247.681 273.454 246.912 273.193 246.244C272.933 245.572 272.554 245.046 272.057 244.668C271.56 244.284 270.956 244.092 270.246 244.092C269.517 244.092 268.901 244.291 268.399 244.689C267.902 245.082 267.523 245.615 267.263 246.287C267.007 246.959 266.879 247.714 266.879 248.553C266.879 249.4 267.009 250.165 267.27 250.847C267.53 251.528 267.909 252.071 268.406 252.473C268.908 252.871 269.521 253.07 270.246 253.07Z" fill="black"/>
<path d="M66.1074 104H64.7154L70.0066 89.4545H71.427L76.7182 104H75.3262L70.7665 91.1804H70.6671L66.1074 104ZM67.1088 98.4247H74.3248V99.6179H67.1088V98.4247ZM80.2125 97.1818V104H78.9483V93.0909H80.177V94.8026H80.2907C80.5463 94.2438 80.9441 93.7964 81.4838 93.4602C82.0283 93.1193 82.7007 92.9489 83.5009 92.9489C84.2348 92.9489 84.8787 93.1027 85.4327 93.4105C85.9914 93.7135 86.4247 94.161 86.7324 94.7528C87.0449 95.3447 87.2012 96.0715 87.2012 96.9332V104H85.937V97.0114C85.937 96.1165 85.686 95.4086 85.1841 94.8878C84.687 94.367 84.0194 94.1065 83.1813 94.1065C82.6084 94.1065 82.0994 94.2296 81.6543 94.4759C81.2092 94.7221 80.8565 95.0772 80.5961 95.5412C80.3404 96.0005 80.2125 96.5473 80.2125 97.1818ZM100.395 104.227C99.4532 104.227 98.6199 103.988 97.8954 103.51C97.1757 103.032 96.6123 102.371 96.2051 101.528C95.7979 100.681 95.5943 99.7031 95.5943 98.5952C95.5943 97.4777 95.7979 96.4953 96.2051 95.6477C96.6123 94.7955 97.1757 94.1326 97.8954 93.6591C98.6199 93.1809 99.4532 92.9418 100.395 92.9418C101.338 92.9418 102.169 93.1809 102.888 93.6591C103.608 94.1373 104.171 94.8002 104.579 95.6477C104.991 96.4953 105.197 97.4777 105.197 98.5952C105.197 99.7031 104.993 100.681 104.586 101.528C104.179 102.371 103.613 103.032 102.888 103.51C102.169 103.988 101.338 104.227 100.395 104.227ZM100.395 103.07C101.153 103.07 101.795 102.866 102.32 102.459C102.846 102.052 103.243 101.509 103.513 100.832C103.788 100.155 103.925 99.4096 103.925 98.5952C103.925 97.7808 103.788 97.0327 103.513 96.3509C103.243 95.669 102.846 95.1222 102.32 94.7102C101.795 94.2983 101.153 94.0923 100.395 94.0923C99.6426 94.0923 99.001 94.2983 98.4707 94.7102C97.9451 95.1222 97.545 95.669 97.2704 96.3509C97.0005 97.0327 96.8656 97.7808 96.8656 98.5952C96.8656 99.4096 97.0005 100.155 97.2704 100.832C97.545 101.509 97.9451 102.052 98.4707 102.459C98.9963 102.866 99.6378 103.07 100.395 103.07ZM107.972 104V93.0909H109.2V94.767H109.293C109.511 94.2178 109.889 93.7751 110.429 93.4389C110.974 93.098 111.589 92.9276 112.276 92.9276C112.38 92.9276 112.496 92.9299 112.624 92.9347C112.752 92.9394 112.858 92.9441 112.943 92.9489V94.2344C112.887 94.2249 112.787 94.2107 112.645 94.1918C112.503 94.1728 112.349 94.1634 112.183 94.1634C111.615 94.1634 111.109 94.2841 110.664 94.5256C110.223 94.7623 109.875 95.0914 109.619 95.5128C109.364 95.9342 109.236 96.4148 109.236 96.9545V104H107.972ZM118.696 104.227C117.801 104.227 117.018 103.991 116.345 103.517C115.673 103.044 115.147 102.383 114.769 101.536C114.395 100.688 114.208 99.7008 114.208 98.5739C114.208 97.4517 114.395 96.4692 114.769 95.6264C115.147 94.7789 115.675 94.1207 116.352 93.652C117.03 93.1785 117.818 92.9418 118.718 92.9418C119.38 92.9418 119.932 93.0601 120.372 93.2969C120.813 93.5289 121.165 93.8177 121.431 94.1634C121.696 94.509 121.902 94.8452 122.048 95.1719H122.162V89.4545H123.433V104H122.198V101.976H122.048C121.902 102.307 121.693 102.648 121.423 102.999C121.154 103.344 120.796 103.635 120.351 103.872C119.911 104.109 119.359 104.227 118.696 104.227ZM118.845 103.07C119.551 103.07 120.152 102.878 120.649 102.494C121.146 102.106 121.525 101.573 121.786 100.896C122.051 100.214 122.183 99.4332 122.183 98.5526C122.183 97.6813 122.053 96.9119 121.793 96.2443C121.532 95.572 121.154 95.0464 120.656 94.6676C120.159 94.2841 119.556 94.0923 118.845 94.0923C118.116 94.0923 117.501 94.2912 116.999 94.6889C116.502 95.0819 116.123 95.6146 115.862 96.2869C115.607 96.9593 115.479 97.7145 115.479 98.5526C115.479 99.4001 115.609 100.165 115.869 100.847C116.13 101.528 116.509 102.071 117.006 102.473C117.508 102.871 118.121 103.07 118.845 103.07ZM131.445 104.227C130.427 104.227 129.546 103.991 128.803 103.517C128.059 103.039 127.484 102.378 127.077 101.536C126.674 100.688 126.473 99.7126 126.473 98.6094C126.473 97.5109 126.674 96.5355 127.077 95.6832C127.484 94.8262 128.045 94.1562 128.76 93.6733C129.48 93.1856 130.311 92.9418 131.253 92.9418C131.845 92.9418 132.415 93.0507 132.965 93.2685C133.514 93.4815 134.006 93.8106 134.442 94.2557C134.882 94.696 135.23 95.2524 135.486 95.9247C135.742 96.5923 135.869 97.383 135.869 98.2969V98.9219H127.347V97.8068H134.577C134.577 97.1061 134.435 96.4763 134.151 95.9176C133.871 95.3542 133.481 94.9091 132.979 94.5824C132.482 94.2557 131.906 94.0923 131.253 94.0923C130.562 94.0923 129.953 94.277 129.428 94.6463C128.902 95.0156 128.49 95.5033 128.192 96.1094C127.898 96.7154 127.749 97.3783 127.744 98.098V98.7656C127.744 99.6321 127.894 100.39 128.192 101.038C128.495 101.682 128.923 102.182 129.477 102.537C130.031 102.892 130.687 103.07 131.445 103.07C131.961 103.07 132.413 102.989 132.801 102.828C133.194 102.667 133.523 102.452 133.789 102.182C134.058 101.907 134.262 101.607 134.399 101.28L135.6 101.67C135.434 102.13 135.162 102.554 134.783 102.942C134.409 103.33 133.94 103.643 133.377 103.879C132.818 104.111 132.174 104.227 131.445 104.227ZM138.655 104V93.0909H139.884V94.767H139.976C140.194 94.2178 140.573 93.7751 141.113 93.4389C141.657 93.098 142.273 92.9276 142.959 92.9276C143.064 92.9276 143.18 92.9299 143.307 92.9347C143.435 92.9394 143.542 92.9441 143.627 92.9489V94.2344C143.57 94.2249 143.471 94.2107 143.329 94.1918C143.187 94.1728 143.033 94.1634 142.867 94.1634C142.299 94.1634 141.792 94.2841 141.347 94.5256C140.907 94.7623 140.559 95.0914 140.303 95.5128C140.047 95.9342 139.92 96.4148 139.92 96.9545V104H138.655ZM153.831 104L150.536 93.0909H151.871L154.456 102.089H154.548L157.127 93.0909H158.469L161.026 102.068H161.125L163.71 93.0909H165.046L161.75 104H160.443L157.858 95.0582H157.723L155.138 104H153.831ZM170.55 104.249C169.892 104.249 169.29 104.121 168.746 103.865C168.201 103.605 167.768 103.231 167.446 102.743C167.124 102.25 166.963 101.654 166.963 100.953C166.963 100.413 167.065 99.9588 167.269 99.5895C167.472 99.2202 167.761 98.9171 168.135 98.6804C168.509 98.4437 168.952 98.2566 169.463 98.1193C169.975 97.982 170.538 97.8755 171.154 97.7997C171.764 97.724 172.28 97.6577 172.702 97.6009C173.128 97.544 173.452 97.4541 173.675 97.331C173.897 97.2079 174.009 97.009 174.009 96.7344V96.4787C174.009 95.7353 173.786 95.1506 173.341 94.7244C172.901 94.2936 172.266 94.0781 171.438 94.0781C170.652 94.0781 170.01 94.2509 169.513 94.5966C169.021 94.9422 168.675 95.3494 168.476 95.8182L167.276 95.3849C167.522 94.7884 167.863 94.3125 168.298 93.9574C168.734 93.5975 169.222 93.3395 169.762 93.1832C170.301 93.0223 170.848 92.9418 171.402 92.9418C171.819 92.9418 172.252 92.9962 172.702 93.1051C173.156 93.214 173.578 93.4034 173.966 93.6733C174.354 93.9384 174.669 94.3101 174.911 94.7884C175.152 95.2618 175.273 95.8632 175.273 96.5923V104H174.009V102.274H173.931C173.779 102.596 173.554 102.909 173.256 103.212C172.958 103.515 172.584 103.763 172.134 103.957C171.684 104.152 171.156 104.249 170.55 104.249ZM170.72 103.091C171.393 103.091 171.975 102.942 172.468 102.643C172.96 102.345 173.339 101.95 173.604 101.457C173.874 100.96 174.009 100.413 174.009 99.8168V98.2401C173.914 98.33 173.755 98.4105 173.533 98.4815C173.315 98.5526 173.062 98.6165 172.773 98.6733C172.489 98.7254 172.205 98.7704 171.921 98.8082C171.637 98.8461 171.381 98.8793 171.154 98.9077C170.538 98.9834 170.012 99.1018 169.577 99.2628C169.141 99.4238 168.807 99.6463 168.575 99.9304C168.343 100.21 168.227 100.57 168.227 101.01C168.227 101.673 168.464 102.187 168.938 102.551C169.411 102.911 170.005 103.091 170.72 103.091ZM185.965 95.4844L184.808 95.8111C184.694 95.4844 184.533 95.1884 184.325 94.9233C184.116 94.6581 183.844 94.4474 183.508 94.2912C183.177 94.1349 182.765 94.0568 182.272 94.0568C181.534 94.0568 180.927 94.232 180.454 94.5824C179.981 94.9328 179.744 95.3849 179.744 95.9389C179.744 96.4077 179.905 96.7888 180.227 97.0824C180.553 97.3712 181.055 97.6009 181.732 97.7713L183.38 98.1761C184.294 98.3987 184.978 98.7514 185.433 99.2344C185.892 99.7173 186.122 100.323 186.122 101.053C186.122 101.668 185.951 102.215 185.61 102.693C185.269 103.171 184.794 103.548 184.183 103.822C183.577 104.092 182.874 104.227 182.073 104.227C181.008 104.227 180.13 103.988 179.438 103.51C178.747 103.027 178.304 102.331 178.11 101.422L179.325 101.124C179.481 101.772 179.786 102.262 180.241 102.594C180.7 102.925 181.304 103.091 182.052 103.091C182.89 103.091 183.56 102.904 184.062 102.53C184.564 102.151 184.815 101.678 184.815 101.109C184.815 100.669 184.668 100.3 184.374 100.001C184.081 99.6984 183.636 99.4759 183.039 99.3338L181.257 98.9077C180.31 98.6804 179.609 98.3205 179.154 97.8281C178.7 97.3357 178.472 96.7249 178.472 95.9957C178.472 95.3944 178.636 94.8665 178.963 94.4119C179.289 93.9527 179.739 93.5928 180.312 93.3324C180.885 93.072 181.538 92.9418 182.272 92.9418C183.271 92.9418 184.069 93.169 184.666 93.6236C185.267 94.0734 185.7 94.6937 185.965 95.4844ZM197.562 104.249C196.903 104.249 196.302 104.121 195.758 103.865C195.213 103.605 194.78 103.231 194.458 102.743C194.136 102.25 193.975 101.654 193.975 100.953C193.975 100.413 194.077 99.9588 194.28 99.5895C194.484 99.2202 194.773 98.9171 195.147 98.6804C195.521 98.4437 195.964 98.2566 196.475 98.1193C196.986 97.982 197.55 97.8755 198.165 97.7997C198.776 97.724 199.292 97.6577 199.714 97.6009C200.14 97.544 200.464 97.4541 200.687 97.331C200.909 97.2079 201.02 97.009 201.02 96.7344V96.4787C201.02 95.7353 200.798 95.1506 200.353 94.7244C199.912 94.2936 199.278 94.0781 198.449 94.0781C197.663 94.0781 197.022 94.2509 196.525 94.5966C196.032 94.9422 195.687 95.3494 195.488 95.8182L194.287 95.3849C194.534 94.7884 194.875 94.3125 195.31 93.9574C195.746 93.5975 196.233 93.3395 196.773 93.1832C197.313 93.0223 197.86 92.9418 198.414 92.9418C198.831 92.9418 199.264 92.9962 199.714 93.1051C200.168 93.214 200.59 93.4034 200.978 93.6733C201.366 93.9384 201.681 94.3101 201.922 94.7884C202.164 95.2618 202.285 95.8632 202.285 96.5923V104H201.02V102.274H200.942C200.791 102.596 200.566 102.909 200.268 103.212C199.969 103.515 199.595 103.763 199.145 103.957C198.696 104.152 198.168 104.249 197.562 104.249ZM197.732 103.091C198.404 103.091 198.987 102.942 199.479 102.643C199.972 102.345 200.35 101.95 200.616 101.457C200.885 100.96 201.02 100.413 201.02 99.8168V98.2401C200.926 98.33 200.767 98.4105 200.545 98.4815C200.327 98.5526 200.073 98.6165 199.785 98.6733C199.501 98.7254 199.216 98.7704 198.932 98.8082C198.648 98.8461 198.393 98.8793 198.165 98.9077C197.55 98.9834 197.024 99.1018 196.589 99.2628C196.153 99.4238 195.819 99.6463 195.587 99.9304C195.355 100.21 195.239 100.57 195.239 101.01C195.239 101.673 195.476 102.187 195.949 102.551C196.423 102.911 197.017 103.091 197.732 103.091ZM209.575 104.227C208.68 104.227 207.897 103.991 207.224 103.517C206.552 103.044 206.026 102.383 205.648 101.536C205.273 100.688 205.086 99.7008 205.086 98.5739C205.086 97.4517 205.273 96.4692 205.648 95.6264C206.026 94.7789 206.554 94.1207 207.231 93.652C207.908 93.1785 208.697 92.9418 209.596 92.9418C210.259 92.9418 210.811 93.0601 211.251 93.2969C211.692 93.5289 212.044 93.8177 212.309 94.1634C212.575 94.509 212.781 94.8452 212.927 95.1719H213.041V89.4545H214.312V104H213.077V101.976H212.927C212.781 102.307 212.572 102.648 212.302 102.999C212.032 103.344 211.675 103.635 211.23 103.872C210.79 104.109 210.238 104.227 209.575 104.227ZM209.724 103.07C210.43 103.07 211.031 102.878 211.528 102.494C212.025 102.106 212.404 101.573 212.665 100.896C212.93 100.214 213.062 99.4332 213.062 98.5526C213.062 97.6813 212.932 96.9119 212.672 96.2443C212.411 95.572 212.032 95.0464 211.535 94.6676C211.038 94.2841 210.434 94.0923 209.724 94.0923C208.995 94.0923 208.38 94.2912 207.878 94.6889C207.381 95.0819 207.002 95.6146 206.741 96.2869C206.486 96.9593 206.358 97.7145 206.358 98.5526C206.358 99.4001 206.488 100.165 206.748 100.847C207.009 101.528 207.388 102.071 207.885 102.473C208.387 102.871 209 103.07 209.724 103.07ZM221.841 104.227C220.946 104.227 220.162 103.991 219.49 103.517C218.818 103.044 218.292 102.383 217.913 101.536C217.539 100.688 217.352 99.7008 217.352 98.5739C217.352 97.4517 217.539 96.4692 217.913 95.6264C218.292 94.7789 218.82 94.1207 219.497 93.652C220.174 93.1785 220.962 92.9418 221.862 92.9418C222.525 92.9418 223.077 93.0601 223.517 93.2969C223.957 93.5289 224.31 93.8177 224.575 94.1634C224.84 94.509 225.046 94.8452 225.193 95.1719H225.307V89.4545H226.578V104H225.342V101.976H225.193C225.046 102.307 224.838 102.648 224.568 102.999C224.298 103.344 223.941 103.635 223.496 103.872C223.055 104.109 222.504 104.227 221.841 104.227ZM221.99 103.07C222.695 103.07 223.297 102.878 223.794 102.494C224.291 102.106 224.67 101.573 224.93 100.896C225.195 100.214 225.328 99.4332 225.328 98.5526C225.328 97.6813 225.198 96.9119 224.937 96.2443C224.677 95.572 224.298 95.0464 223.801 94.6676C223.304 94.2841 222.7 94.0923 221.99 94.0923C221.261 94.0923 220.645 94.2912 220.143 94.6889C219.646 95.0819 219.267 95.6146 219.007 96.2869C218.751 96.9593 218.623 97.7145 218.623 98.5526C218.623 99.4001 218.754 100.165 219.014 100.847C219.274 101.528 219.653 102.071 220.15 102.473C220.652 102.871 221.265 103.07 221.99 103.07ZM234.589 104.227C233.571 104.227 232.691 103.991 231.947 103.517C231.204 103.039 230.629 102.378 230.221 101.536C229.819 100.688 229.618 99.7126 229.618 98.6094C229.618 97.5109 229.819 96.5355 230.221 95.6832C230.629 94.8262 231.19 94.1562 231.905 93.6733C232.624 93.1856 233.455 92.9418 234.398 92.9418C234.989 92.9418 235.56 93.0507 236.109 93.2685C236.658 93.4815 237.151 93.8106 237.586 94.2557C238.027 94.696 238.375 95.2524 238.631 95.9247C238.886 96.5923 239.014 97.383 239.014 98.2969V98.9219H230.491V97.8068H237.721C237.721 97.1061 237.579 96.4763 237.295 95.9176C237.016 95.3542 236.625 94.9091 236.123 94.5824C235.626 94.2557 235.051 94.0923 234.398 94.0923C233.706 94.0923 233.098 94.277 232.572 94.6463C232.047 95.0156 231.635 95.5033 231.336 96.1094C231.043 96.7154 230.894 97.3783 230.889 98.098V98.7656C230.889 99.6321 231.038 100.39 231.336 101.038C231.64 101.682 232.068 102.182 232.622 102.537C233.176 102.892 233.832 103.07 234.589 103.07C235.105 103.07 235.558 102.989 235.946 102.828C236.339 102.667 236.668 102.452 236.933 102.182C237.203 101.907 237.407 101.607 237.544 101.28L238.744 101.67C238.578 102.13 238.306 102.554 237.927 102.942C237.553 103.33 237.085 103.643 236.521 103.879C235.962 104.111 235.318 104.227 234.589 104.227ZM245.727 104.227C244.833 104.227 244.049 103.991 243.377 103.517C242.704 103.044 242.179 102.383 241.8 101.536C241.426 100.688 241.239 99.7008 241.239 98.5739C241.239 97.4517 241.426 96.4692 241.8 95.6264C242.179 94.7789 242.707 94.1207 243.384 93.652C244.061 93.1785 244.849 92.9418 245.749 92.9418C246.412 92.9418 246.963 93.0601 247.404 93.2969C247.844 93.5289 248.197 93.8177 248.462 94.1634C248.727 94.509 248.933 94.8452 249.08 95.1719H249.193V89.4545H250.465V104H249.229V101.976H249.08C248.933 102.307 248.725 102.648 248.455 102.999C248.185 103.344 247.827 103.635 247.382 103.872C246.942 104.109 246.39 104.227 245.727 104.227ZM245.877 103.07C246.582 103.07 247.183 102.878 247.681 102.494C248.178 102.106 248.557 101.573 248.817 100.896C249.082 100.214 249.215 99.4332 249.215 98.5526C249.215 97.6813 249.084 96.9119 248.824 96.2443C248.564 95.572 248.185 95.0464 247.688 94.6676C247.191 94.2841 246.587 94.0923 245.877 94.0923C245.147 94.0923 244.532 94.2912 244.03 94.6889C243.533 95.0819 243.154 95.6146 242.894 96.2869C242.638 96.9593 242.51 97.7145 242.51 98.5526C242.51 99.4001 242.64 100.165 242.901 100.847C243.161 101.528 243.54 102.071 244.037 102.473C244.539 102.871 245.152 103.07 245.877 103.07ZM255.841 89.4545L255.749 99.831H254.499L254.406 89.4545H255.841ZM255.124 104.107C254.844 104.107 254.603 104.007 254.399 103.808C254.2 103.605 254.101 103.363 254.101 103.084C254.101 102.8 254.2 102.558 254.399 102.359C254.603 102.161 254.844 102.061 255.124 102.061C255.403 102.061 255.642 102.161 255.841 102.359C256.045 102.558 256.146 102.8 256.146 103.084C256.146 103.268 256.099 103.439 256.004 103.595C255.914 103.751 255.791 103.877 255.635 103.972C255.484 104.062 255.313 104.107 255.124 104.107Z" fill="black"/>
<path d="M98.5975 162.455H100.132L104.443 169.358H104.57L108.882 162.455H110.416L105.167 170.7V177H103.846V170.7L98.5975 162.455ZM115.345 177.227C114.402 177.227 113.569 176.988 112.845 176.51C112.125 176.032 111.561 175.371 111.154 174.528C110.747 173.681 110.544 172.703 110.544 171.595C110.544 170.478 110.747 169.495 111.154 168.648C111.561 167.795 112.125 167.133 112.845 166.659C113.569 166.181 114.402 165.942 115.345 165.942C116.287 165.942 117.118 166.181 117.838 166.659C118.557 167.137 119.121 167.8 119.528 168.648C119.94 169.495 120.146 170.478 120.146 171.595C120.146 172.703 119.942 173.681 119.535 174.528C119.128 175.371 118.562 176.032 117.838 176.51C117.118 176.988 116.287 177.227 115.345 177.227ZM115.345 176.07C116.102 176.07 116.744 175.866 117.269 175.459C117.795 175.052 118.193 174.509 118.463 173.832C118.737 173.155 118.874 172.41 118.874 171.595C118.874 170.781 118.737 170.033 118.463 169.351C118.193 168.669 117.795 168.122 117.269 167.71C116.744 167.298 116.102 167.092 115.345 167.092C114.592 167.092 113.95 167.298 113.42 167.71C112.894 168.122 112.494 168.669 112.22 169.351C111.95 170.033 111.815 170.781 111.815 171.595C111.815 172.41 111.95 173.155 112.22 173.832C112.494 174.509 112.894 175.052 113.42 175.459C113.945 175.866 114.587 176.07 115.345 176.07ZM129.853 172.831V166.091H131.117V177H129.853V175.189H129.753C129.498 175.748 129.093 176.214 128.539 176.588C127.985 176.957 127.308 177.142 126.508 177.142C125.812 177.142 125.194 176.991 124.654 176.688C124.114 176.38 123.69 175.93 123.383 175.338C123.075 174.746 122.921 174.019 122.921 173.158V166.091H124.185V173.08C124.185 173.932 124.436 174.618 124.938 175.139C125.44 175.655 126.084 175.913 126.87 175.913C127.362 175.913 127.836 175.795 128.29 175.558C128.745 175.321 129.119 174.976 129.412 174.521C129.706 174.062 129.853 173.499 129.853 172.831ZM134.464 177V166.091H135.693V167.767H135.785C136.003 167.218 136.382 166.775 136.921 166.439C137.466 166.098 138.081 165.928 138.768 165.928C138.872 165.928 138.988 165.93 139.116 165.935C139.244 165.939 139.35 165.944 139.436 165.949V167.234C139.379 167.225 139.279 167.211 139.137 167.192C138.995 167.173 138.841 167.163 138.676 167.163C138.107 167.163 137.601 167.284 137.156 167.526C136.715 167.762 136.367 168.091 136.112 168.513C135.856 168.934 135.728 169.415 135.728 169.955V177H134.464ZM151.458 177.227C150.516 177.227 149.682 176.988 148.958 176.51C148.238 176.032 147.675 175.371 147.268 174.528C146.86 173.681 146.657 172.703 146.657 171.595C146.657 170.478 146.86 169.495 147.268 168.648C147.675 167.795 148.238 167.133 148.958 166.659C149.682 166.181 150.516 165.942 151.458 165.942C152.4 165.942 153.231 166.181 153.951 166.659C154.671 167.137 155.234 167.8 155.641 168.648C156.053 169.495 156.259 170.478 156.259 171.595C156.259 172.703 156.055 173.681 155.648 174.528C155.241 175.371 154.675 176.032 153.951 176.51C153.231 176.988 152.4 177.227 151.458 177.227ZM151.458 176.07C152.215 176.07 152.857 175.866 153.383 175.459C153.908 175.052 154.306 174.509 154.576 173.832C154.85 173.155 154.988 172.41 154.988 171.595C154.988 170.781 154.85 170.033 154.576 169.351C154.306 168.669 153.908 168.122 153.383 167.71C152.857 167.298 152.215 167.092 151.458 167.092C150.705 167.092 150.064 167.298 149.533 167.71C149.008 168.122 148.608 168.669 148.333 169.351C148.063 170.033 147.928 170.781 147.928 171.595C147.928 172.41 148.063 173.155 148.333 173.832C148.608 174.509 149.008 175.052 149.533 175.459C150.059 175.866 150.7 176.07 151.458 176.07ZM159.034 177V166.091H160.263V167.767H160.355C160.573 167.218 160.952 166.775 161.492 166.439C162.036 166.098 162.652 165.928 163.338 165.928C163.442 165.928 163.558 165.93 163.686 165.935C163.814 165.939 163.921 165.944 164.006 165.949V167.234C163.949 167.225 163.85 167.211 163.708 167.192C163.566 167.173 163.412 167.163 163.246 167.163C162.678 167.163 162.171 167.284 161.726 167.526C161.286 167.762 160.938 168.091 160.682 168.513C160.426 168.934 160.298 169.415 160.298 169.955V177H159.034ZM169.759 177.227C168.864 177.227 168.08 176.991 167.408 176.517C166.735 176.044 166.21 175.383 165.831 174.536C165.457 173.688 165.27 172.701 165.27 171.574C165.27 170.452 165.457 169.469 165.831 168.626C166.21 167.779 166.738 167.121 167.415 166.652C168.092 166.179 168.88 165.942 169.78 165.942C170.443 165.942 170.994 166.06 171.435 166.297C171.875 166.529 172.228 166.818 172.493 167.163C172.758 167.509 172.964 167.845 173.111 168.172H173.225V162.455H174.496V177H173.26V174.976H173.111C172.964 175.307 172.756 175.648 172.486 175.999C172.216 176.344 171.859 176.635 171.414 176.872C170.973 177.109 170.422 177.227 169.759 177.227ZM169.908 176.07C170.613 176.07 171.215 175.878 171.712 175.494C172.209 175.106 172.588 174.573 172.848 173.896C173.113 173.214 173.246 172.433 173.246 171.553C173.246 170.681 173.116 169.912 172.855 169.244C172.595 168.572 172.216 168.046 171.719 167.668C171.222 167.284 170.618 167.092 169.908 167.092C169.179 167.092 168.563 167.291 168.061 167.689C167.564 168.082 167.185 168.615 166.925 169.287C166.669 169.959 166.541 170.714 166.541 171.553C166.541 172.4 166.672 173.165 166.932 173.847C167.192 174.528 167.571 175.071 168.068 175.473C168.57 175.871 169.183 176.07 169.908 176.07ZM182.507 177.227C181.489 177.227 180.609 176.991 179.865 176.517C179.122 176.039 178.547 175.378 178.139 174.536C177.737 173.688 177.536 172.713 177.536 171.609C177.536 170.511 177.737 169.536 178.139 168.683C178.547 167.826 179.108 167.156 179.823 166.673C180.542 166.186 181.373 165.942 182.316 165.942C182.907 165.942 183.478 166.051 184.027 166.268C184.576 166.482 185.069 166.811 185.504 167.256C185.945 167.696 186.293 168.252 186.548 168.925C186.804 169.592 186.932 170.383 186.932 171.297V171.922H178.409V170.807H185.639C185.639 170.106 185.497 169.476 185.213 168.918C184.934 168.354 184.543 167.909 184.041 167.582C183.544 167.256 182.969 167.092 182.316 167.092C181.624 167.092 181.016 167.277 180.49 167.646C179.965 168.016 179.553 168.503 179.254 169.109C178.961 169.715 178.812 170.378 178.807 171.098V171.766C178.807 172.632 178.956 173.39 179.254 174.038C179.557 174.682 179.986 175.182 180.54 175.537C181.094 175.892 181.75 176.07 182.507 176.07C183.023 176.07 183.476 175.989 183.864 175.828C184.257 175.667 184.586 175.452 184.851 175.182C185.121 174.907 185.325 174.607 185.462 174.28L186.662 174.67C186.496 175.13 186.224 175.554 185.845 175.942C185.471 176.33 185.003 176.643 184.439 176.879C183.88 177.111 183.236 177.227 182.507 177.227ZM189.718 177V166.091H190.947V167.767H191.039C191.257 167.218 191.635 166.775 192.175 166.439C192.72 166.098 193.335 165.928 194.022 165.928C194.126 165.928 194.242 165.93 194.37 165.935C194.498 165.939 194.604 165.944 194.689 165.949V167.234C194.633 167.225 194.533 167.211 194.391 167.192C194.249 167.173 194.095 167.163 193.93 167.163C193.361 167.163 192.855 167.284 192.41 167.526C191.969 167.762 191.621 168.091 191.366 168.513C191.11 168.934 190.982 169.415 190.982 169.955V177H189.718ZM204.894 177L201.598 166.091H202.933L205.519 175.089H205.611L208.189 166.091H209.531L212.088 175.068H212.188L214.773 166.091H216.108L212.813 177H211.506L208.921 168.058H208.786L206.2 177H204.894ZM221.612 177.249C220.954 177.249 220.353 177.121 219.808 176.865C219.264 176.605 218.831 176.231 218.509 175.743C218.187 175.25 218.026 174.654 218.026 173.953C218.026 173.413 218.128 172.959 218.331 172.589C218.535 172.22 218.824 171.917 219.198 171.68C219.572 171.444 220.014 171.257 220.526 171.119C221.037 170.982 221.601 170.875 222.216 170.8C222.827 170.724 223.343 170.658 223.764 170.601C224.191 170.544 224.515 170.454 224.737 170.331C224.96 170.208 225.071 170.009 225.071 169.734V169.479C225.071 168.735 224.849 168.151 224.404 167.724C223.963 167.294 223.329 167.078 222.5 167.078C221.714 167.078 221.073 167.251 220.575 167.597C220.083 167.942 219.737 168.349 219.539 168.818L218.338 168.385C218.584 167.788 218.925 167.312 219.361 166.957C219.797 166.598 220.284 166.339 220.824 166.183C221.364 166.022 221.911 165.942 222.465 165.942C222.881 165.942 223.315 165.996 223.764 166.105C224.219 166.214 224.64 166.403 225.029 166.673C225.417 166.938 225.732 167.31 225.973 167.788C226.215 168.262 226.335 168.863 226.335 169.592V177H225.071V175.274H224.993C224.842 175.596 224.617 175.909 224.318 176.212C224.02 176.515 223.646 176.763 223.196 176.957C222.746 177.152 222.218 177.249 221.612 177.249ZM221.783 176.091C222.455 176.091 223.038 175.942 223.53 175.643C224.022 175.345 224.401 174.95 224.666 174.457C224.936 173.96 225.071 173.413 225.071 172.817V171.24C224.977 171.33 224.818 171.411 224.595 171.482C224.378 171.553 224.124 171.616 223.835 171.673C223.551 171.725 223.267 171.77 222.983 171.808C222.699 171.846 222.443 171.879 222.216 171.908C221.601 171.983 221.075 172.102 220.639 172.263C220.204 172.424 219.87 172.646 219.638 172.93C219.406 173.21 219.29 173.57 219.29 174.01C219.29 174.673 219.527 175.187 220 175.551C220.474 175.911 221.068 176.091 221.783 176.091ZM237.028 168.484L235.87 168.811C235.757 168.484 235.596 168.188 235.387 167.923C235.179 167.658 234.907 167.447 234.57 167.291C234.239 167.135 233.827 167.057 233.335 167.057C232.596 167.057 231.99 167.232 231.517 167.582C231.043 167.933 230.806 168.385 230.806 168.939C230.806 169.408 230.967 169.789 231.289 170.082C231.616 170.371 232.118 170.601 232.795 170.771L234.443 171.176C235.356 171.399 236.041 171.751 236.495 172.234C236.954 172.717 237.184 173.323 237.184 174.053C237.184 174.668 237.014 175.215 236.673 175.693C236.332 176.171 235.856 176.548 235.245 176.822C234.639 177.092 233.936 177.227 233.136 177.227C232.07 177.227 231.192 176.988 230.501 176.51C229.81 176.027 229.367 175.331 229.173 174.422L230.387 174.124C230.544 174.772 230.849 175.262 231.303 175.594C231.763 175.925 232.366 176.091 233.115 176.091C233.953 176.091 234.623 175.904 235.124 175.53C235.626 175.151 235.877 174.678 235.877 174.109C235.877 173.669 235.731 173.3 235.437 173.001C235.143 172.698 234.698 172.476 234.102 172.334L232.319 171.908C231.372 171.68 230.671 171.321 230.217 170.828C229.762 170.336 229.535 169.725 229.535 168.996C229.535 168.394 229.698 167.866 230.025 167.412C230.352 166.953 230.802 166.593 231.374 166.332C231.947 166.072 232.601 165.942 233.335 165.942C234.334 165.942 235.132 166.169 235.728 166.624C236.329 167.073 236.763 167.694 237.028 168.484ZM249.874 166.091V167.192H244.668V166.091H249.874ZM246.295 163.477H247.566V174.152C247.566 174.607 247.644 174.964 247.8 175.224C247.956 175.48 248.16 175.662 248.411 175.771C248.662 175.875 248.93 175.928 249.214 175.928C249.379 175.928 249.521 175.918 249.64 175.899C249.758 175.875 249.862 175.852 249.952 175.828L250.222 176.972C250.099 177.019 249.948 177.062 249.768 177.099C249.588 177.142 249.365 177.163 249.1 177.163C248.636 177.163 248.189 177.062 247.758 176.858C247.331 176.654 246.981 176.351 246.706 175.949C246.432 175.546 246.295 175.047 246.295 174.45V163.477ZM252.745 177V166.091H253.974V167.767H254.066C254.284 167.218 254.663 166.775 255.203 166.439C255.747 166.098 256.363 165.928 257.049 165.928C257.153 165.928 257.269 165.93 257.397 165.935C257.525 165.939 257.632 165.944 257.717 165.949V167.234C257.66 167.225 257.561 167.211 257.419 167.192C257.276 167.173 257.123 167.163 256.957 167.163C256.389 167.163 255.882 167.284 255.437 167.526C254.997 167.762 254.649 168.091 254.393 168.513C254.137 168.934 254.009 169.415 254.009 169.955V177H252.745ZM262.921 177.249C262.263 177.249 261.662 177.121 261.117 176.865C260.573 176.605 260.139 176.231 259.817 175.743C259.495 175.25 259.334 174.654 259.334 173.953C259.334 173.413 259.436 172.959 259.64 172.589C259.843 172.22 260.132 171.917 260.506 171.68C260.88 171.444 261.323 171.257 261.834 171.119C262.346 170.982 262.909 170.875 263.525 170.8C264.135 170.724 264.652 170.658 265.073 170.601C265.499 170.544 265.823 170.454 266.046 170.331C266.269 170.208 266.38 170.009 266.38 169.734V169.479C266.38 168.735 266.157 168.151 265.712 167.724C265.272 167.294 264.637 167.078 263.809 167.078C263.023 167.078 262.381 167.251 261.884 167.597C261.392 167.942 261.046 168.349 260.847 168.818L259.647 168.385C259.893 167.788 260.234 167.312 260.67 166.957C261.105 166.598 261.593 166.339 262.133 166.183C262.672 166.022 263.219 165.942 263.773 165.942C264.19 165.942 264.623 165.996 265.073 166.105C265.528 166.214 265.949 166.403 266.337 166.673C266.725 166.938 267.04 167.31 267.282 167.788C267.523 168.262 267.644 168.863 267.644 169.592V177H266.38V175.274H266.302C266.15 175.596 265.925 175.909 265.627 176.212C265.329 176.515 264.955 176.763 264.505 176.957C264.055 177.152 263.527 177.249 262.921 177.249ZM263.091 176.091C263.764 176.091 264.346 175.942 264.839 175.643C265.331 175.345 265.71 174.95 265.975 174.457C266.245 173.96 266.38 173.413 266.38 172.817V171.24C266.285 171.33 266.126 171.411 265.904 171.482C265.686 171.553 265.433 171.616 265.144 171.673C264.86 171.725 264.576 171.77 264.292 171.808C264.008 171.846 263.752 171.879 263.525 171.908C262.909 171.983 262.384 172.102 261.948 172.263C261.512 172.424 261.179 172.646 260.947 172.93C260.715 173.21 260.599 173.57 260.599 174.01C260.599 174.673 260.835 175.187 261.309 175.551C261.782 175.911 262.376 176.091 263.091 176.091ZM272.271 170.182V177H271.007V166.091H272.236V167.803H272.349C272.605 167.244 273.003 166.796 273.542 166.46C274.087 166.119 274.759 165.949 275.559 165.949C276.293 165.949 276.937 166.103 277.491 166.411C278.05 166.714 278.483 167.161 278.791 167.753C279.104 168.345 279.26 169.071 279.26 169.933V177H277.996V170.011C277.996 169.116 277.745 168.409 277.243 167.888C276.746 167.367 276.078 167.107 275.24 167.107C274.667 167.107 274.158 167.23 273.713 167.476C273.268 167.722 272.915 168.077 272.655 168.541C272.399 169 272.271 169.547 272.271 170.182ZM289.919 168.484L288.761 168.811C288.647 168.484 288.486 168.188 288.278 167.923C288.07 167.658 287.797 167.447 287.461 167.291C287.13 167.135 286.718 167.057 286.225 167.057C285.487 167.057 284.881 167.232 284.407 167.582C283.934 167.933 283.697 168.385 283.697 168.939C283.697 169.408 283.858 169.789 284.18 170.082C284.507 170.371 285.008 170.601 285.686 170.771L287.333 171.176C288.247 171.399 288.931 171.751 289.386 172.234C289.845 172.717 290.075 173.323 290.075 174.053C290.075 174.668 289.904 175.215 289.563 175.693C289.222 176.171 288.747 176.548 288.136 176.822C287.53 177.092 286.827 177.227 286.026 177.227C284.961 177.227 284.083 176.988 283.392 176.51C282.7 176.027 282.258 175.331 282.063 174.422L283.278 174.124C283.434 174.772 283.74 175.262 284.194 175.594C284.653 175.925 285.257 176.091 286.005 176.091C286.843 176.091 287.513 175.904 288.015 175.53C288.517 175.151 288.768 174.678 288.768 174.109C288.768 173.669 288.621 173.3 288.328 173.001C288.034 172.698 287.589 172.476 286.992 172.334L285.21 171.908C284.263 171.68 283.562 171.321 283.107 170.828C282.653 170.336 282.426 169.725 282.426 168.996C282.426 168.394 282.589 167.866 282.916 167.412C283.242 166.953 283.692 166.593 284.265 166.332C284.838 166.072 285.491 165.942 286.225 165.942C287.224 165.942 288.022 166.169 288.619 166.624C289.22 167.073 289.653 167.694 289.919 168.484ZM292.857 177V166.091H294.128V177H292.857ZM293.503 164.216C293.243 164.216 293.02 164.128 292.836 163.953C292.651 163.773 292.559 163.558 292.559 163.307C292.559 163.056 292.651 162.843 292.836 162.668C293.02 162.488 293.243 162.398 293.503 162.398C293.764 162.398 293.986 162.488 294.171 162.668C294.356 162.843 294.448 163.056 294.448 163.307C294.448 163.558 294.356 163.773 294.171 163.953C293.986 164.128 293.764 164.216 293.503 164.216ZM301.769 166.091V167.192H296.563V166.091H301.769ZM298.189 163.477H299.46V174.152C299.46 174.607 299.539 174.964 299.695 175.224C299.851 175.48 300.055 175.662 300.306 175.771C300.557 175.875 300.824 175.928 301.108 175.928C301.274 175.928 301.416 175.918 301.534 175.899C301.653 175.875 301.757 175.852 301.847 175.828L302.117 176.972C301.994 177.019 301.842 177.062 301.662 177.099C301.482 177.142 301.26 177.163 300.994 177.163C300.53 177.163 300.083 177.062 299.652 176.858C299.226 176.654 298.876 176.351 298.601 175.949C298.326 175.546 298.189 175.047 298.189 174.45V163.477Z" fill="black"/>
<rect x="64" y="113" width="216" height="4" fill="#E8A7C6"/>
<rect x="132" y="263" width="216" height="4" fill="#0B832D"/>
<rect x="103" y="188" width="216" height="4" fill="#F5D946"/>
<path d="M108.25 257.875H91.75V250.542L100 242.75L108.25 250.542V257.875Z" fill="#E8EAF6"/>
<path d="M106.875 249.625L104.583 247.333V244.125H106.875V249.625ZM91.75 257.875H108.25V260.167H91.75V257.875Z" fill="#C5CAE9"/>
<path d="M100 241.971L90.8333 250.496L91.75 251.504L100 243.85L108.25 251.504L109.167 250.496L100 241.971Z" fill="#0B832D"/>
<path d="M97.25 252.833H102.75V260.167H97.25V252.833Z" fill="#0B832D"/>
<path d="M98.625 247.792H101.375V250.542H98.625V247.792Z" fill="black"/>
<path d="M101.604 256.271C101.467 256.271 101.375 256.362 101.375 256.5V257.417C101.375 257.554 101.467 257.646 101.604 257.646C101.742 257.646 101.833 257.554 101.833 257.417V256.5C101.833 256.362 101.742 256.271 101.604 256.271Z" fill="#FF8A65"/>
<path d="M32 111.625C37.3157 111.625 41.625 107.316 41.625 102C41.625 96.6843 37.3157 92.375 32 92.375C26.6843 92.375 22.375 96.6843 22.375 102C22.375 107.316 26.6843 111.625 32 111.625Z" fill="#4CAF50"/>
<path d="M36.8583 97.6917L30.625 103.925L28.0583 101.358L26.775 102.642L30.625 106.492L38.1417 98.975L36.8583 97.6917Z" fill="white"/>
<path d="M77.5601 176.22L72.5006 172.52V170C72.5276 169.495 72.3331 169.001 71.9599 168.626C71.5868 168.251 71.0653 168.026 70.5099 168H57.9713C57.4198 168.031 56.9039 168.258 56.5354 168.633C56.1669 169.007 55.9754 169.498 56.0025 170V180C55.9923 180.397 56.1124 180.788 56.3475 181.123C56.5825 181.458 56.9219 181.721 57.3224 181.88C57.1198 182.331 57.0409 182.819 57.0924 183.304C57.1438 183.788 57.3242 184.254 57.6179 184.661C57.9116 185.068 58.3097 185.404 58.7781 185.64C59.2464 185.875 59.7708 186.004 60.306 186.014C60.8412 186.025 61.3712 185.917 61.8502 185.699C62.3292 185.482 62.7428 185.162 63.0554 184.767C63.368 184.372 63.5701 183.913 63.6444 183.431C63.7187 182.949 63.6628 182.458 63.4817 182H70.4769C70.296 182.453 70.2378 182.939 70.3074 183.417C70.377 183.895 70.5722 184.351 70.8765 184.745C71.1808 185.14 71.5852 185.462 72.0556 185.685C72.5259 185.907 73.0483 186.024 73.5785 186.024C74.1087 186.024 74.6311 185.907 75.1014 185.685C75.5718 185.462 75.9762 185.14 76.2805 184.745C76.5849 184.351 76.78 183.895 76.8496 183.417C76.9192 182.939 76.861 182.453 76.6801 182H76.9001C77.1918 182 77.4716 181.895 77.6779 181.707C77.8841 181.52 78 181.265 78 181V177C77.9966 176.848 77.9553 176.699 77.879 176.564C77.8028 176.429 77.6937 176.311 77.5601 176.22ZM75.8003 177.48V180H72.5006V175.08L75.8003 177.48ZM61.5019 183C61.5019 183.198 61.4374 183.391 61.3165 183.556C61.1957 183.72 61.0239 183.848 60.8229 183.924C60.6219 184 60.4008 184.019 60.1874 183.981C59.9741 183.942 59.7781 183.847 59.6243 183.707C59.4705 183.567 59.3657 183.389 59.3233 183.195C59.2808 183.001 59.3026 182.8 59.3859 182.617C59.4691 182.435 59.6101 182.278 59.791 182.169C59.9718 182.059 60.1845 182 60.402 182C60.6937 182 60.9735 182.105 61.1797 182.293C61.386 182.48 61.5019 182.735 61.5019 183ZM74.7004 183C74.7004 183.198 74.6359 183.391 74.515 183.556C74.3942 183.72 74.2224 183.848 74.0214 183.924C73.8204 184 73.5993 184.019 73.3859 183.981C73.1726 183.942 72.9766 183.847 72.8228 183.707C72.669 183.567 72.5642 183.389 72.5218 183.195C72.4793 183.001 72.5011 182.8 72.5844 182.617C72.6676 182.435 72.8086 182.278 72.9894 182.169C73.1703 182.059 73.383 182 73.6005 182C73.8922 182 74.172 182.105 74.3782 182.293C74.5845 182.48 74.7004 182.735 74.7004 183Z" fill="#D5973B"/>
<mask id="mask0_161_2" style="mask-type:alpha" maskUnits="userSpaceOnUse" x="309" y="85" width="24" height="62">
<rect x="332.954" y="85.0093" width="61.5527" height="22.9364" transform="rotate(90.023 332.954 85.0093)" fill="#D9D9D9"/>
</mask>
<g mask="url(#mask0_161_2)">
<path d="M312.878 102.954L318.684 102.957C318.908 99.1951 319.558 96.1178 320.635 93.7245C321.711 91.3312 322.95 90.1348 324.351 90.1354C325.944 90.136 327.297 91.6326 328.411 94.6252C329.525 97.6178 330.081 101.251 330.079 105.526C330.078 109.287 329.63 112.611 328.737 115.496C327.844 118.381 326.696 120.122 325.295 120.72L325.29 131.62L326.821 127.581L328.157 131.172L324.331 141.429L320.512 131.169L321.851 127.515L323.379 131.619L323.383 120.655C323.384 119.415 323.535 118.325 323.838 117.385C324.141 116.445 324.524 115.868 324.986 115.654C325.91 115.27 326.671 114.116 327.269 112.193C327.867 110.27 328.167 108.047 328.168 105.525C328.169 102.704 327.796 100.289 327.048 98.2794C326.3 96.2701 325.4 95.2652 324.349 95.2648C323.409 95.2644 322.581 96.0655 321.863 97.6682C321.146 99.2708 320.715 101.312 320.571 103.791C320.491 105.03 320.275 106.056 319.924 106.868C319.574 107.68 319.167 108.086 318.705 108.086L312.876 108.084L312.878 102.954Z" fill="black" fill-opacity="0.69"/>
</g>
<mask id="mask1_161_2" style="mask-type:alpha" maskUnits="userSpaceOnUse" x="45" y="210" width="23" height="69">
<rect x="67.4443" y="278.563" width="22.3983" height="68.5628" transform="rotate(179.962 67.4443 278.563)" fill="#D9D9D9"/>
</mask>
<g mask="url(#mask1_161_2)">
<path d="M53.4051 218.579L53.4168 236.006C53.4177 237.387 53.2708 238.601 52.9759 239.649C52.6811 240.696 52.3082 241.339 51.8573 241.578C50.9555 242.007 50.2136 243.293 49.6318 245.436C49.0499 247.579 48.7599 250.055 48.7618 252.864C48.7639 256.006 49.1313 258.696 49.8638 260.934C50.5964 263.171 51.4759 264.289 52.5025 264.289C53.4202 264.288 54.2285 263.395 54.9272 261.609C55.6259 259.823 56.0444 257.549 56.1825 254.787C56.2594 253.407 56.4686 252.264 56.8102 251.359C57.1518 250.454 57.5481 250.001 57.9992 250.001L61.9889 249.998L60.4926 245.428L61.8198 241.428L65.5605 252.853L61.8351 264.282L60.5259 260.284L61.9927 255.712L58.0263 255.715C57.8114 259.905 57.1799 263.333 56.1317 266C55.0836 268.667 53.8751 270.001 52.5064 270.002C50.9509 270.003 49.6277 268.338 48.5366 265.005C47.4456 261.673 46.8985 257.627 46.8953 252.865C46.8925 248.675 47.3255 244.973 48.1944 241.759C49.0633 238.544 50.1819 236.603 51.5502 235.936L51.5386 218.581L53.4051 218.579Z" fill="black" fill-opacity="0.69"/>
</g>
<mask id="mask2_161_2" style="mask-type:alpha" maskUnits="userSpaceOnUse" x="20" y="0" width="68" height="68">
<rect x="20" y="34.6169" width="47.8691" height="47.8691" transform="rotate(-46.3158 20 34.6169)" fill="#D9D9D9"/>
</mask>
<g mask="url(#mask2_161_2)">
<path d="M39.5802 55.4005L36.6954 52.6453L42.2058 46.8758L45.0906 49.631L39.5802 55.4005ZM39.3779 40.4514L31.4114 40.6344L31.2847 36.652L39.2872 36.5034L39.3779 40.4514ZM52.1729 50.8791L47.8458 46.7463L61.6218 32.3225L65.9489 36.4553L52.1729 50.8791ZM41.8172 29.956L34.6053 23.068L37.3605 20.1832L44.5724 27.0712L41.8172 29.956ZM54.9447 24.1526L50.9968 24.2433L50.8138 16.2769L54.7962 16.1501L54.9447 24.1526ZM64.377 29.4378L61.4922 26.6826L67.0026 20.9131L69.8874 23.6683L64.377 29.4378Z" fill="#1C1B1F"/>
</g>
</svg>
