<svg width="39" height="40" viewBox="0 0 39 40" fill="none" xmlns="http://www.w3.org/2000/svg">
<path d="M8.58016 39.4005L5.69541 36.6453L11.2058 30.8758L14.0906 33.631L8.58016 39.4005ZM8.37786 24.4514L0.411441 24.6344L0.2847 20.652L8.28718 20.5034L8.37786 24.4514ZM21.1729 34.8791L16.8458 30.7463L30.6218 16.3225L34.9489 20.4553L21.1729 34.8791ZM10.8172 13.956L3.60532 7.06797L6.36052 4.18323L13.5724 11.0712L10.8172 13.956ZM23.9447 8.1526L19.9968 8.24328L19.8138 0.276854L23.7962 0.150116L23.9447 8.1526ZM33.377 13.4378L30.4922 10.6826L36.0026 4.9131L38.8874 7.66831L33.377 13.4378Z" fill="#1C1B1F"/>
</svg>
