<svg width="22" height="22" viewBox="0 0 22 22" fill="none" xmlns="http://www.w3.org/2000/svg">
<path d="M19.25 17.875H2.75V10.5417L11 2.75L19.25 10.5417V17.875Z" fill="#E8EAF6"/>
<path d="M17.875 9.625L15.5833 7.33333V4.125H17.875V9.625ZM2.75 17.875H19.25V20.1667H2.75V17.875Z" fill="#C5CAE9"/>
<path d="M11 1.97095L1.83333 10.4959L2.74999 11.5043L11 3.85011L19.25 11.5043L20.1667 10.4959L11 1.97095Z" fill="#0B832D"/>
<path d="M8.25 12.8333H13.75V20.1666H8.25V12.8333Z" fill="#0B832D"/>
<path d="M9.625 7.79175H12.375V10.5417H9.625V7.79175Z" fill="black"/>
<path d="M12.6042 16.2708C12.4667 16.2708 12.375 16.3624 12.375 16.4999V17.4166C12.375 17.5541 12.4667 17.6458 12.6042 17.6458C12.7417 17.6458 12.8333 17.5541 12.8333 17.4166V16.4999C12.8333 16.3624 12.7417 16.2708 12.6042 16.2708Z" fill="#FF8A65"/>
</svg>
