<svg width="24" height="24" viewBox="0 0 24 24" fill="none" xmlns="http://www.w3.org/2000/svg">
<g id="ri:home-7-fill">
<path id="Vector" d="M20 19.9999C20 20.2651 19.8946 20.5195 19.7071 20.707C19.5196 20.8946 19.2652 20.9999 19 20.9999H5C4.73478 20.9999 4.48043 20.8946 4.29289 20.707C4.10536 20.5195 4 20.2651 4 19.9999V10.9999H1L11.327 1.61192C11.5111 1.4444 11.7511 1.35156 12 1.35156C12.2489 1.35156 12.4889 1.4444 12.673 1.61192L23 10.9999H20V19.9999ZM12 14.9999C12.663 14.9999 13.2989 14.7365 13.7678 14.2677C14.2366 13.7988 14.5 13.163 14.5 12.4999C14.5 11.8369 14.2366 11.201 13.7678 10.7322C13.2989 10.2633 12.663 9.99992 12 9.99992C11.337 9.99992 10.7011 10.2633 10.2322 10.7322C9.76339 11.201 9.5 11.8369 9.5 12.4999C9.5 13.163 9.76339 13.7988 10.2322 14.2677C10.7011 14.7365 11.337 14.9999 12 14.9999Z" fill="#0B832D"/>
</g>
</svg>
