<svg width="162" height="59" viewBox="0 0 162 59" fill="none" xmlns="http://www.w3.org/2000/svg">
<g filter="url(#filter0_d_23_26)">
<path d="M2.04688 48V0.727271H14.8807V37.6591H33.9929V48H2.04688ZM62.3554 32.4886V12.5455H75.0969V48H63.0017V41.2599H62.6324C61.863 43.522 60.5165 45.2917 58.593 46.5689C56.6694 47.8307 54.3843 48.4616 51.7375 48.4616C49.26 48.4616 47.0902 47.8923 45.2282 46.7536C43.3817 45.6148 41.9429 44.0452 40.9118 42.0447C39.8962 40.0443 39.3807 37.7514 39.3653 35.1662V12.5455H52.1068V32.4886C52.1222 34.2429 52.5684 35.6201 53.4456 36.6204C54.3381 37.6206 55.5845 38.1207 57.1849 38.1207C58.2467 38.1207 59.1623 37.8976 59.9317 37.4513C60.7165 36.9897 61.3167 36.3434 61.7322 35.5124C62.163 34.6661 62.3708 33.6581 62.3554 32.4886ZM92.5645 12.5455L97.7349 23.5327L103.182 12.5455H115.831L106.322 30.2727L116.293 48H103.736L97.7349 36.7358L91.9181 48H79.1767L89.2406 30.2727L79.823 12.5455H92.5645ZM136.144 48.6463C132.358 48.6463 129.096 47.9231 126.357 46.4766C123.633 45.0147 121.533 42.9219 120.056 40.1982C118.594 37.459 117.863 34.1813 117.863 30.3651C117.863 26.7027 118.601 23.5019 120.079 20.7628C121.556 18.0237 123.641 15.8924 126.334 14.369C129.027 12.8455 132.205 12.0838 135.867 12.0838C138.545 12.0838 140.968 12.4993 143.138 13.3303C145.308 14.1612 147.162 15.3692 148.701 16.9542C150.24 18.5238 151.425 20.4319 152.256 22.6786C153.086 24.9253 153.502 27.4567 153.502 30.2727V33.2273H121.833V26.2102H141.776C141.761 25.1946 141.499 24.3021 140.991 23.5327C140.499 22.7479 139.829 22.14 138.983 21.7092C138.152 21.2629 137.206 21.0398 136.144 21.0398C135.113 21.0398 134.167 21.2629 133.305 21.7092C132.443 22.14 131.751 22.7402 131.227 23.5096C130.72 24.279 130.45 25.1792 130.42 26.2102V33.7812C130.42 34.92 130.658 35.9356 131.135 36.8281C131.612 37.7206 132.297 38.4208 133.189 38.9286C134.082 39.4364 135.159 39.6903 136.421 39.6903C137.298 39.6903 138.098 39.5672 138.822 39.321C139.56 39.0748 140.191 38.7209 140.714 38.2592C141.238 37.7822 141.622 37.2128 141.868 36.5511H153.502C153.102 39.0133 152.155 41.1522 150.663 42.968C149.17 44.7685 147.193 46.1688 144.731 47.169C142.284 48.1539 139.422 48.6463 136.144 48.6463Z" fill="white"/>
</g>
<defs>
<filter id="filter0_d_23_26" x="0.046875" y="0.727295" width="161.455" height="57.9191" filterUnits="userSpaceOnUse" color-interpolation-filters="sRGB">
<feFlood flood-opacity="0" result="BackgroundImageFix"/>
<feColorMatrix in="SourceAlpha" type="matrix" values="0 0 0 0 0 0 0 0 0 0 0 0 0 0 0 0 0 0 127 0" result="hardAlpha"/>
<feOffset dx="3" dy="5"/>
<feGaussianBlur stdDeviation="2.5"/>
<feComposite in2="hardAlpha" operator="out"/>
<feColorMatrix type="matrix" values="0 0 0 0 0 0 0 0 0 0 0 0 0 0 0 0 0 0 0.25 0"/>
<feBlend mode="normal" in2="BackgroundImageFix" result="effect1_dropShadow_23_26"/>
<feBlend mode="normal" in="SourceGraphic" in2="effect1_dropShadow_23_26" result="shape"/>
</filter>
</defs>
</svg>
