<svg width="32" height="32" viewBox="0 0 32 32" fill="none" xmlns="http://www.w3.org/2000/svg">
<path d="M16 22.6666C16.7073 22.6666 17.3855 22.3857 17.8856 21.8856C18.3857 21.3855 18.6667 20.7072 18.6667 20C18.6667 19.2927 18.3857 18.6145 17.8856 18.1144C17.3855 17.6143 16.7073 17.3333 16 17.3333C15.2928 17.3333 14.6145 17.6143 14.1144 18.1144C13.6143 18.6145 13.3333 19.2927 13.3333 20C13.3333 20.7072 13.6143 21.3855 14.1144 21.8856C14.6145 22.3857 15.2928 22.6666 16 22.6666ZM24 10.6666C24.7073 10.6666 25.3855 10.9476 25.8856 11.4477C26.3857 11.9478 26.6667 12.6261 26.6667 13.3333V26.6666C26.6667 27.3739 26.3857 28.0522 25.8856 28.5523C25.3855 29.0524 24.7073 29.3333 24 29.3333H8.00001C7.29277 29.3333 6.61449 29.0524 6.11439 28.5523C5.61429 28.0522 5.33334 27.3739 5.33334 26.6666V13.3333C5.33334 12.6261 5.61429 11.9478 6.11439 11.4477C6.61449 10.9476 7.29277 10.6666 8.00001 10.6666H9.33334V7.99998C9.33334 6.23187 10.0357 4.53618 11.286 3.28593C12.5362 2.03569 14.2319 1.33331 16 1.33331C16.8755 1.33331 17.7424 1.50575 18.5512 1.84078C19.3601 2.17581 20.095 2.66688 20.7141 3.28593C21.3331 3.90499 21.8242 4.63992 22.1592 5.44876C22.4942 6.25759 22.6667 7.1245 22.6667 7.99998V10.6666H24ZM16 3.99998C14.9391 3.99998 13.9217 4.42141 13.1716 5.17155C12.4214 5.9217 12 6.93911 12 7.99998V10.6666H20V7.99998C20 6.93911 19.5786 5.9217 18.8284 5.17155C18.0783 4.42141 17.0609 3.99998 16 3.99998Z" fill="white"/>
</svg>
