<svg width="38" height="38" viewBox="0 0 38 38" fill="none" xmlns="http://www.w3.org/2000/svg">
<path d="M22.8975 22.1337C22.7236 22.0771 21.6243 21.5841 22.3112 19.5066H22.3014C24.0921 17.6718 25.4605 14.7193 25.4605 11.8125C25.4605 7.34304 22.4731 5 19.0011 5C15.5269 5 12.5559 7.34195 12.5559 11.8125C12.5559 14.7313 13.9167 17.6957 15.7183 19.5262C16.4206 21.3588 15.1648 22.039 14.9023 22.1348C11.2662 23.4428 7 25.8272 7 28.1812V29.0637C7 32.2709 13.2505 33 19.035 33C24.8283 33 31 32.2709 31 29.0637V28.1812C31 25.7565 26.713 23.3906 22.8975 22.1337Z" fill="white"/>
</svg>
