<svg width="40" height="40" viewBox="0 0 40 40" fill="none" xmlns="http://www.w3.org/2000/svg">
<path d="M30.8333 15.0001C31.3967 15.0001 31.94 14.9201 32.455 14.7718C32.485 15.1235 32.5 15.4801 32.5 15.8385V22.5051L34.8633 27.7718C34.9708 28.0127 35.0164 28.2766 34.9959 28.5395C34.9755 28.8025 34.8897 29.0562 34.7463 29.2776C34.6029 29.4989 34.4065 29.681 34.1748 29.8072C33.9432 29.9334 33.6838 29.9997 33.42 30.0001H6.58668C6.32256 30.0001 6.06266 29.934 5.83062 29.8078C5.59859 29.6817 5.4018 29.4995 5.25818 29.2778C5.11455 29.0562 5.02865 28.8021 5.00831 28.5388C4.98796 28.2755 5.03381 28.0112 5.14168 27.7701L7.50001 22.5035V15.8168L7.50835 15.4001C7.58478 13.2139 8.23361 11.0861 9.38999 9.22915C10.5464 7.37224 12.1698 5.85131 14.0981 4.81833C16.0264 3.78535 18.192 3.2765 20.3785 3.34263C22.5651 3.40875 24.696 4.04753 26.5583 5.19514C25.785 6.02704 25.2714 7.06662 25.0804 8.18629C24.8895 9.30596 25.0296 10.457 25.4836 11.4982C25.9375 12.5394 26.6856 13.4254 27.6359 14.0474C28.5862 14.6695 29.6975 15.0006 30.8333 15.0001ZM24.93 31.6718C24.733 32.8368 24.1298 33.8944 23.2273 34.657C22.3249 35.4197 21.1815 35.8381 20 35.8381C18.8185 35.8381 17.6751 35.4197 16.7727 34.657C15.8702 33.8944 15.267 32.8368 15.07 31.6718H24.93ZM30.8333 13.3335C31.9384 13.3335 32.9982 12.8945 33.7796 12.1131C34.561 11.3317 35 10.2719 35 9.1668C35 8.06173 34.561 7.00193 33.7796 6.22053C32.9982 5.43912 31.9384 5.00014 30.8333 5.00014C29.7283 5.00014 28.6685 5.43912 27.8871 6.22053C27.1057 7.00193 26.6667 8.06173 26.6667 9.1668C26.6667 10.2719 27.1057 11.3317 27.8871 12.1131C28.6685 12.8945 29.7283 13.3335 30.8333 13.3335Z" fill="#0B832D"/>
</svg>
