<svg width="42" height="44" viewBox="0 0 42 44" fill="none" xmlns="http://www.w3.org/2000/svg">
<path d="M7.9625 30.7821V38.3224L15.4 36.4595L21 42.1369L26.6 36.4595L34.0375 38.3224V30.7821L41.5625 28.8305L37.8 21.2901L41.5625 13.7498L34.0375 11.7982V4.25788L26.6 6.12078L21 0.443359L15.4 6.12078L7.9625 4.25788V11.7982L0.4375 13.7498L4.2 21.2901L0.4375 28.8305L7.9625 30.7821ZM7.525 19.6046L5.8625 16.145L8.8375 15.4353C9.7125 15.2579 10.3979 14.8291 10.8938 14.149C11.3896 13.4689 11.6375 12.6853 11.6375 11.7982V9.13691L14.4375 9.93529H15.4C16.3917 9.93529 17.2667 9.55089 18.025 8.78207L21 5.76594L23.975 8.78207C24.7333 9.55089 25.6083 9.93529 26.6 9.93529C26.95 9.93529 27.2708 9.87615 27.5625 9.75788L30.3625 9.13691V11.7982C30.3625 12.6853 30.6104 13.4689 31.1062 14.149C31.6021 14.8291 32.2875 15.2579 33.1625 15.4353L36.1375 16.145L34.475 19.6046C33.8917 20.7283 33.8917 21.852 34.475 22.9756L36.1375 26.4353L33.1625 27.145C32.2875 27.3224 31.6021 27.7512 31.1062 28.4313C30.6104 29.1114 30.3625 29.895 30.3625 30.7821V33.4434L27.5625 32.645H26.6C25.6083 32.645 24.7333 33.0294 23.975 33.7982L21 36.8143L18.025 33.7982C17.2667 33.0294 16.3917 32.645 15.4 32.645C15.05 32.645 14.7292 32.7041 14.4375 32.8224L11.6375 33.4434V30.7821C11.6375 29.895 11.3896 29.1114 10.8938 28.4313C10.3979 27.7512 9.7125 27.3224 8.8375 27.145L5.8625 26.4353L7.525 22.9756C8.10833 21.852 8.10833 20.7283 7.525 19.6046ZM19.1625 27.7659L27.9125 18.8063C28.7292 17.9783 28.7292 17.0912 27.9125 16.145C27.0375 15.3762 26.1625 15.3762 25.2875 16.145L19.1625 22.4434L16.7125 19.9595C15.8375 19.1907 14.9625 19.1907 14.0875 19.9595C13.3292 20.8466 13.3292 21.7337 14.0875 22.6208L19.1625 27.7659Z" fill="white"/>
</svg>
