<svg width="19" height="52" viewBox="0 0 19 52" fill="none" xmlns="http://www.w3.org/2000/svg">
<path d="M0.87784 12.9543L6.6836 12.9566C6.90811 9.19513 7.55841 6.11775 8.63452 3.72447C9.71062 1.33119 10.9495 0.134825 12.3512 0.135389C13.944 0.13603 15.2973 1.63265 16.411 4.62524C17.5248 7.61783 18.0808 11.2514 18.0791 15.5259C18.0776 19.2874 17.6302 22.6107 16.7371 25.4956C15.844 28.3805 14.6965 30.1219 13.2946 30.7198L13.2902 41.6197L14.8209 37.5809L16.1574 41.1721L12.3305 51.4293L8.51194 41.169L9.85137 37.5148L11.3788 41.619L11.3832 30.6549C11.3837 29.4153 11.5355 28.3253 11.8385 27.3851C12.1415 26.4448 12.524 25.8679 12.986 25.6544C13.91 25.27 14.671 24.1162 15.2691 22.1929C15.8671 20.2697 16.1667 18.0471 16.1677 15.5251C16.1688 12.7039 15.7955 10.2887 15.0477 8.27938C14.2999 6.27007 13.4004 5.2652 12.3491 5.26478C11.4094 5.2644 10.5808 6.06554 9.86337 7.66818C9.14596 9.27083 8.71509 11.3117 8.57074 13.7909C8.4906 15.0304 8.27516 16.0562 7.92442 16.8682C7.57367 17.6803 7.16734 18.0862 6.70543 18.086L0.875777 18.0836L0.87784 12.9543Z" fill="black" fill-opacity="0.69"/>
</svg>
