<svg width="20" height="53" viewBox="0 0 20 53" fill="none" xmlns="http://www.w3.org/2000/svg">
<path d="M7.4051 0.57945L7.4168 18.0058C7.41772 19.3866 7.27077 20.6008 6.97594 21.6485C6.68111 22.6962 6.30824 23.3392 5.85733 23.5776C4.95546 24.0067 4.21361 25.2928 3.63176 27.4358C3.04991 29.5787 2.75992 32.0548 2.76181 34.864C2.76392 38.0064 3.13125 40.6963 3.86381 42.9337C4.59636 45.171 5.47594 46.2893 6.50252 46.2886C7.42023 46.288 8.22845 45.3947 8.9272 43.6087C9.62595 41.8228 10.0444 39.549 10.1825 36.7873C10.2594 35.4065 10.4686 34.2636 10.8102 33.3588C11.1518 32.4539 11.5481 32.0013 11.9992 32.001L15.9889 31.9983L14.4926 27.4285L15.8198 23.4281L19.5605 34.8527L15.8351 46.2823L14.5259 42.2837L15.9927 37.7119L12.0263 37.7146C11.8114 41.9046 11.1799 45.3332 10.1317 48.0002C9.0836 50.6673 7.87514 52.0013 6.50636 52.0022C4.95092 52.0032 3.62769 50.3377 2.53664 47.0055C1.4456 43.6733 0.898485 39.6265 0.895289 34.8652C0.892476 30.6753 1.32551 26.9731 2.1944 23.7586C3.06328 20.5442 4.18189 18.6032 5.55023 17.9357L5.53858 0.580703L7.4051 0.57945Z" fill="black" fill-opacity="0.69"/>
</svg>
