<svg width="24" height="24" viewBox="0 0 24 24" fill="none" xmlns="http://www.w3.org/2000/svg">
<path d="M8 8.99995H9.5C9.89782 8.99995 10.2794 9.15799 10.5607 9.43929C10.842 9.7206 11 10.1021 11 10.5C11 10.8978 10.842 11.2793 10.5607 11.5606C10.2794 11.8419 9.89782 12 9.5 12M9.5 12H9M9.5 12C9.89782 12 10.2794 12.158 10.5607 12.4393C10.842 12.7206 11 13.1021 11 13.5C11 13.8978 10.842 14.2793 10.5607 14.5606C10.2794 14.8419 9.89782 15 9.5 15H8M3 12V12.01M7.5 4.19995V4.20995M7.5 19.8V19.81M4.2 16.5V16.51M4.2 7.49995V7.50995M14 10.5V13.5C14 13.8978 14.158 14.2793 14.4393 14.5606C14.7206 14.8419 15.1022 15 15.5 15C15.8978 15 16.2794 14.8419 16.5607 14.5606C16.842 14.2793 17 13.8978 17 13.5V10.5C17 10.1021 16.842 9.7206 16.5607 9.43929C16.2794 9.15799 15.8978 8.99995 15.5 8.99995C15.1022 8.99995 14.7206 9.15799 14.4393 9.43929C14.158 9.7206 14 10.1021 14 10.5Z" stroke="white" stroke-width="2" stroke-linecap="round" stroke-linejoin="round"/>
<path d="M12 21C14.3869 21 16.6761 20.0518 18.364 18.364C20.0518 16.6761 21 14.3869 21 12C21 9.61305 20.0518 7.32387 18.364 5.63604C16.6761 3.94821 14.3869 3 12 3" stroke="white" stroke-width="2" stroke-linecap="round" stroke-linejoin="round"/>
</svg>
