<svg width="24" height="24" viewBox="0 0 24 24" fill="none" xmlns="http://www.w3.org/2000/svg">
<path d="M9 9V15M3 12V12.01M21 12V12.01M12 21V21.01M7.5 4.2V4.21M16.5 19.8V19.81M7.5 19.8V19.81M4.2 16.5V16.51M19.8 16.5V16.51M4.2 7.5V7.51M19.81 7.527C19.0226 6.15107 17.8856 5.00769 16.5141 4.2127C15.1426 3.41771 13.5853 2.99934 12 3M12 11V13C12 13.5304 12.2107 14.0391 12.5858 14.4142C12.9609 14.7893 13.4696 15 14 15C14.5304 15 15.0391 14.7893 15.4142 14.4142C15.7893 14.0391 16 13.5304 16 13V11C16 10.4696 15.7893 9.96086 15.4142 9.58579C15.0391 9.21072 14.5304 9 14 9C13.4696 9 12.9609 9.21072 12.5858 9.58579C12.2107 9.96086 12 10.4696 12 11Z" stroke="white" stroke-width="2" stroke-linecap="round" stroke-linejoin="round"/>
</svg>
