<svg width="127" height="49" viewBox="0 0 127 49" fill="none" xmlns="http://www.w3.org/2000/svg">
<g filter="url(#filter0_d_23_16)">
<path d="M0.414773 5.54261V1.63636H27.6875V5.54261H16.2528V38H11.8494V5.54261H0.414773ZM33.9153 38V10.7273H38.1056V38H33.9153ZM36.046 6.18182C35.2292 6.18182 34.5249 5.90365 33.9331 5.3473C33.353 4.79096 33.063 4.12216 33.063 3.34091C33.063 2.55966 33.353 1.89086 33.9331 1.33452C34.5249 0.778172 35.2292 0.5 36.046 0.5C36.8627 0.5 37.5611 0.778172 38.1412 1.33452C38.733 1.89086 39.0289 2.55966 39.0289 3.34091C39.0289 4.12216 38.733 4.79096 38.1412 5.3473C37.5611 5.90365 36.8627 6.18182 36.046 6.18182ZM45.7805 38V10.7273H49.8288V14.9886H50.1839C50.7521 13.5327 51.6695 12.4022 52.9361 11.5973C54.2027 10.7805 55.7237 10.3722 57.4993 10.3722C59.2985 10.3722 60.7959 10.7805 61.9915 11.5973C63.1989 12.4022 64.1399 13.5327 64.8146 14.9886H65.0987C65.7971 13.58 66.8447 12.4614 68.2415 11.6328C69.6383 10.7924 71.3132 10.3722 73.2663 10.3722C75.7048 10.3722 77.6993 11.1357 79.25 12.6626C80.8007 14.1778 81.576 16.5393 81.576 19.7472V38H77.3857V19.7472C77.3857 17.7348 76.8352 16.2966 75.7344 15.4325C74.6335 14.5684 73.3374 14.1364 71.8459 14.1364C69.9283 14.1364 68.4427 14.7164 67.3892 15.8764C66.3357 17.0246 65.8089 18.4806 65.8089 20.2443V38H61.5476V19.321C61.5476 17.7704 61.0445 16.5215 60.0384 15.5746C59.0322 14.6158 57.736 14.1364 56.1499 14.1364C55.0608 14.1364 54.0429 14.4264 53.0959 15.0064C52.1607 15.5864 51.4032 16.3913 50.8232 17.4212C50.255 18.4392 49.9709 19.617 49.9709 20.9545V38H45.7805ZM100.672 38.5682C98.0444 38.5682 95.7776 37.9882 93.8718 36.8281C91.9779 35.6562 90.516 34.0227 89.4862 31.9276C88.4682 29.8205 87.9592 27.3703 87.9592 24.5767C87.9592 21.7831 88.4682 19.321 89.4862 17.1903C90.516 15.0478 91.9483 13.3788 93.783 12.1832C95.6296 10.9759 97.784 10.3722 100.246 10.3722C101.667 10.3722 103.069 10.6089 104.454 11.0824C105.839 11.5559 107.1 12.3253 108.236 13.3906C109.373 14.4441 110.278 15.8409 110.953 17.581C111.627 19.321 111.965 21.4635 111.965 24.0085V25.7841H90.9421V22.1619H107.703C107.703 20.6231 107.396 19.25 106.78 18.0426C106.176 16.8352 105.312 15.8823 104.188 15.1839C103.075 14.4856 101.761 14.1364 100.246 14.1364C98.5771 14.1364 97.1329 14.5507 95.9137 15.3793C94.7063 16.196 93.7771 17.2614 93.1261 18.5753C92.475 19.8892 92.1495 21.2978 92.1495 22.8011V25.2159C92.1495 27.2756 92.5046 29.0215 93.2148 30.4538C93.9369 31.8743 94.9371 32.9574 96.2156 33.7031C97.494 34.437 98.9795 34.804 100.672 34.804C101.773 34.804 102.767 34.6501 103.655 34.3423C104.555 34.0227 105.33 33.5492 105.981 32.9219C106.632 32.2827 107.135 31.4896 107.49 30.5426L111.539 31.679C111.113 33.0521 110.396 34.2595 109.39 35.3011C108.384 36.331 107.141 37.1359 105.662 37.7159C104.182 38.2841 102.519 38.5682 100.672 38.5682Z" fill="white"/>
</g>
<defs>
<filter id="filter0_d_23_16" x="0.41478" y="0.5" width="126.55" height="48.0682" filterUnits="userSpaceOnUse" color-interpolation-filters="sRGB">
<feFlood flood-opacity="0" result="BackgroundImageFix"/>
<feColorMatrix in="SourceAlpha" type="matrix" values="0 0 0 0 0 0 0 0 0 0 0 0 0 0 0 0 0 0 127 0" result="hardAlpha"/>
<feOffset dx="10" dy="5"/>
<feGaussianBlur stdDeviation="2.5"/>
<feComposite in2="hardAlpha" operator="out"/>
<feColorMatrix type="matrix" values="0 0 0 0 0 0 0 0 0 0 0 0 0 0 0 0 0 0 0.25 0"/>
<feBlend mode="normal" in2="BackgroundImageFix" result="effect1_dropShadow_23_16"/>
<feBlend mode="normal" in="SourceGraphic" in2="effect1_dropShadow_23_16" result="shape"/>
</filter>
</defs>
</svg>
