<svg width="40" height="40" viewBox="0 0 40 40" fill="none" xmlns="http://www.w3.org/2000/svg">
<g clip-path="url(#clip0_338_177)">
<path d="M2.48061 37.4905L2.48069 34.9537C2.48069 33.9599 3.2269 33.6481 3.52444 33.5106L14.5026 28.3299C15.2894 27.9687 15.8325 27.2237 15.9382 26.3643C15.9904 25.9416 15.9336 25.5126 15.7732 25.118C15.6128 24.7234 15.3542 24.3764 15.0219 24.1099C12.425 22.0249 11.215 17.4418 11.215 15.0012V8.75428C11.215 6.1424 15.7619 2.5099 19.97 2.5099C24.215 2.5099 28.7175 6.08553 28.7175 8.75428V15.0012C28.7175 17.4055 27.7175 22.0055 25.0357 24.1174C24.6993 24.3821 24.4366 24.7288 24.2727 25.1242C24.1087 25.5196 24.0491 25.9505 24.0994 26.3755C24.2019 27.2411 24.7475 27.9893 25.5388 28.353L31.8763 31.3705L33.3663 29.2587L26.5825 26.0812C30.0457 23.3555 31.2175 18.0011 31.2175 15.0005V8.75361C31.2175 4.61611 25.49 0.00927734 19.97 0.00927734C14.45 0.00927734 8.71503 4.61615 8.71503 8.75361V15.0005C8.71503 17.7299 9.96065 23.2524 13.4569 26.0586L2.47878 31.2405C2.47878 31.2405 -0.0193481 32.3536 -0.0193481 33.7392V37.4905C-0.0193481 38.8711 1.0994 39.9892 2.47874 39.9892H27.4675L25.4362 37.4899L2.48061 37.4905ZM39.5394 28.2619C38.9963 27.8356 38.2101 27.9325 37.7851 28.4756L32.4394 36.6281L29.1169 33.305C28.6288 32.8169 27.8369 32.8169 27.3488 33.305C26.8607 33.7931 26.8607 34.5844 27.3488 35.0725L31.7682 39.4919C32.2563 39.98 33.0476 39.98 33.5357 39.4919C33.6544 39.3737 33.7432 39.2362 33.8044 39.09L39.7538 30.0156C40.1788 29.4725 40.0832 28.6869 39.5394 28.2619Z" fill="white"/>
</g>
<defs>
<clipPath id="clip0_338_177">
<rect width="40" height="40" fill="white"/>
</clipPath>
</defs>
</svg>
